<svg width="560" height="489" viewBox="0 0 560 489" fill="none" xmlns="http://www.w3.org/2000/svg">
<rect y="110" width="560" height="379" rx="20" fill="#DAF4FF"/>
<path d="M64.1377 318.464V312.2H65.4217V318.464H64.1377ZM67.3297 318.464V312.2H68.6137V318.464H67.3297ZM70.1201 329L72.4721 312.2H74.4881L72.1361 329H70.1201ZM92.8027 321.536L91.7707 329H89.7547L90.7267 321.98C90.8147 321.372 90.7467 320.82 90.5227 320.324C90.2987 319.828 89.9587 319.436 89.5027 319.148C89.0467 318.852 88.5147 318.704 87.9067 318.704C87.2987 318.704 86.7267 318.852 86.1907 319.148C85.6547 319.436 85.2027 319.828 84.8347 320.324C84.4747 320.82 84.2507 321.372 84.1627 321.98L83.1787 329H81.1627L83.6827 311H85.6987L84.6547 318.5C85.1587 317.94 85.7547 317.496 86.4427 317.168C87.1387 316.832 87.8667 316.664 88.6267 316.664C89.5227 316.664 90.3067 316.884 90.9787 317.324C91.6587 317.756 92.1627 318.34 92.4907 319.076C92.8267 319.812 92.9307 320.632 92.8027 321.536ZM105.276 317H107.292L105.612 329H103.596L103.8 326.972C103.328 327.668 102.728 328.232 102 328.664C101.28 329.096 100.464 329.312 99.5516 329.312C98.6716 329.312 97.8676 329.148 97.1396 328.82C96.4196 328.484 95.8076 328.024 95.3036 327.44C94.7996 326.848 94.4356 326.168 94.2116 325.4C93.9956 324.632 93.9516 323.804 94.0796 322.916C94.1996 322.06 94.4716 321.252 94.8956 320.492C95.3276 319.732 95.8676 319.068 96.5156 318.5C97.1716 317.924 97.8956 317.476 98.6876 317.156C99.4876 316.828 100.32 316.664 101.184 316.664C102.128 316.664 102.924 316.888 103.572 317.336C104.228 317.776 104.728 318.348 105.072 319.052L105.276 317ZM99.7796 327.356C100.572 327.356 101.284 327.164 101.916 326.78C102.556 326.388 103.08 325.86 103.488 325.196C103.904 324.532 104.168 323.8 104.28 323C104.392 322.184 104.332 321.448 104.1 320.792C103.876 320.128 103.5 319.604 102.972 319.22C102.452 318.828 101.8 318.632 101.016 318.632C100.224 318.632 99.4756 318.828 98.7716 319.22C98.0676 319.612 97.4796 320.14 97.0076 320.804C96.5356 321.46 96.2436 322.192 96.1316 323C96.0196 323.808 96.1116 324.544 96.4076 325.208C96.7036 325.864 97.1476 326.388 97.7396 326.78C98.3396 327.164 99.0196 327.356 99.7796 327.356ZM119.956 311H121.972L119.452 329H117.436L117.724 326.96C117.22 327.664 116.592 328.232 115.84 328.664C115.088 329.096 114.248 329.312 113.32 329.312C112.448 329.312 111.652 329.148 110.932 328.82C110.22 328.492 109.616 328.04 109.12 327.464C108.624 326.88 108.264 326.208 108.04 325.448C107.824 324.688 107.776 323.872 107.896 323C108.016 322.128 108.292 321.312 108.724 320.552C109.164 319.784 109.712 319.112 110.368 318.536C111.032 317.952 111.768 317.496 112.576 317.168C113.384 316.84 114.224 316.676 115.096 316.676C116.024 316.676 116.8 316.892 117.424 317.324C118.056 317.756 118.524 318.324 118.828 319.028L119.956 311ZM113.608 327.356C114.4 327.356 115.112 327.164 115.744 326.78C116.384 326.388 116.908 325.86 117.316 325.196C117.732 324.532 117.996 323.8 118.108 323C118.22 322.184 118.16 321.448 117.928 320.792C117.704 320.128 117.328 319.604 116.8 319.22C116.28 318.828 115.628 318.632 114.844 318.632C114.052 318.632 113.304 318.828 112.6 319.22C111.904 319.612 111.316 320.14 110.836 320.804C110.364 321.46 110.072 322.192 109.96 323C109.848 323.808 109.94 324.544 110.236 325.208C110.532 325.864 110.976 326.388 111.568 326.78C112.168 327.164 112.848 327.356 113.608 327.356ZM135.716 319.016H132.992L131.576 329H129.56L130.976 319.016H128.912L129.188 317H131.252L131.768 313.232H133.784L133.268 317H135.992L135.716 319.016ZM141.391 329.312C140.287 329.312 139.319 329.028 138.487 328.46C137.663 327.892 137.047 327.132 136.639 326.18C136.239 325.22 136.119 324.16 136.279 323C136.399 322.12 136.667 321.3 137.083 320.54C137.507 319.772 138.035 319.1 138.667 318.524C139.299 317.94 139.999 317.484 140.767 317.156C141.543 316.828 142.343 316.664 143.167 316.664C144.271 316.664 145.235 316.948 146.059 317.516C146.891 318.084 147.511 318.848 147.919 319.808C148.327 320.768 148.447 321.832 148.279 323C148.159 323.872 147.887 324.688 147.463 325.448C147.047 326.208 146.523 326.88 145.891 327.464C145.259 328.04 144.559 328.492 143.791 328.82C143.023 329.148 142.223 329.312 141.391 329.312ZM141.667 327.296C142.419 327.296 143.123 327.1 143.779 326.708C144.435 326.308 144.987 325.784 145.435 325.136C145.883 324.48 146.159 323.768 146.263 323C146.375 322.216 146.299 321.496 146.035 320.84C145.771 320.184 145.367 319.66 144.823 319.268C144.279 318.876 143.635 318.68 142.891 318.68C142.139 318.68 141.435 318.88 140.779 319.28C140.123 319.672 139.571 320.196 139.123 320.852C138.683 321.508 138.407 322.224 138.295 323C138.183 323.8 138.259 324.528 138.523 325.184C138.795 325.832 139.207 326.348 139.759 326.732C140.311 327.108 140.947 327.296 141.667 327.296ZM163.166 316.664C164.334 316.664 165.354 316.948 166.226 317.516C167.106 318.084 167.762 318.848 168.194 319.808C168.634 320.76 168.77 321.82 168.602 322.988C168.482 323.86 168.202 324.68 167.762 325.448C167.33 326.208 166.782 326.88 166.118 327.464C165.462 328.04 164.726 328.492 163.91 328.82C163.102 329.148 162.262 329.312 161.39 329.312C160.462 329.312 159.686 329.096 159.062 328.664C158.438 328.224 157.974 327.652 157.67 326.948L157.382 329H155.366L157.886 311H159.902L158.774 319.028C159.278 318.324 159.902 317.756 160.646 317.324C161.398 316.884 162.238 316.664 163.166 316.664ZM161.642 327.344C162.434 327.344 163.182 327.148 163.886 326.756C164.59 326.364 165.178 325.84 165.65 325.184C166.13 324.52 166.426 323.788 166.538 322.988C166.658 322.172 166.566 321.436 166.262 320.78C165.966 320.116 165.518 319.592 164.918 319.208C164.326 318.816 163.646 318.62 162.878 318.62C162.086 318.62 161.37 318.816 160.73 319.208C160.098 319.6 159.578 320.128 159.17 320.792C158.762 321.456 158.502 322.188 158.39 322.988C158.278 323.796 158.334 324.532 158.558 325.196C158.79 325.852 159.166 326.376 159.686 326.768C160.214 327.152 160.866 327.344 161.642 327.344ZM174.93 329.312C173.826 329.312 172.858 329.028 172.026 328.46C171.202 327.892 170.586 327.132 170.178 326.18C169.778 325.22 169.658 324.16 169.818 323C169.938 322.12 170.206 321.3 170.622 320.54C171.046 319.772 171.574 319.1 172.206 318.524C172.838 317.94 173.538 317.484 174.306 317.156C175.082 316.828 175.882 316.664 176.706 316.664C177.81 316.664 178.774 316.948 179.598 317.516C180.43 318.084 181.05 318.848 181.458 319.808C181.866 320.768 181.986 321.832 181.818 323C181.698 323.872 181.426 324.688 181.002 325.448C180.586 326.208 180.062 326.88 179.43 327.464C178.798 328.04 178.098 328.492 177.33 328.82C176.562 329.148 175.762 329.312 174.93 329.312ZM175.206 327.296C175.958 327.296 176.662 327.1 177.318 326.708C177.974 326.308 178.526 325.784 178.974 325.136C179.422 324.48 179.698 323.768 179.802 323C179.914 322.216 179.838 321.496 179.574 320.84C179.31 320.184 178.906 319.66 178.362 319.268C177.818 318.876 177.174 318.68 176.43 318.68C175.678 318.68 174.974 318.88 174.318 319.28C173.662 319.672 173.11 320.196 172.662 320.852C172.222 321.508 171.946 322.224 171.834 323C171.722 323.8 171.798 324.528 172.062 325.184C172.334 325.832 172.746 326.348 173.298 326.732C173.85 327.108 174.486 327.296 175.206 327.296ZM182.963 329L184.643 317H186.659L186.455 318.5C186.959 317.94 187.555 317.496 188.243 317.168C188.939 316.832 189.667 316.664 190.427 316.664C190.891 316.664 191.331 316.724 191.747 316.844L190.643 318.86C190.339 318.756 190.027 318.704 189.707 318.704C189.099 318.704 188.527 318.852 187.991 319.148C187.455 319.436 187.003 319.828 186.635 320.324C186.275 320.82 186.051 321.372 185.963 321.98L184.979 329H182.963ZM191.565 329L193.245 317H195.261L195.057 318.5C195.561 317.94 196.157 317.496 196.845 317.168C197.541 316.832 198.269 316.664 199.029 316.664C199.493 316.664 199.933 316.724 200.349 316.844L199.245 318.86C198.941 318.756 198.629 318.704 198.309 318.704C197.701 318.704 197.129 318.852 196.593 319.148C196.057 319.436 195.605 319.828 195.237 320.324C194.877 320.82 194.653 321.372 194.565 321.98L193.581 329H191.565ZM204.742 329.312C203.638 329.312 202.67 329.028 201.838 328.46C201.014 327.892 200.398 327.132 199.99 326.18C199.59 325.22 199.47 324.16 199.63 323C199.75 322.12 200.018 321.3 200.434 320.54C200.858 319.772 201.386 319.1 202.018 318.524C202.65 317.94 203.35 317.484 204.118 317.156C204.894 316.828 205.694 316.664 206.518 316.664C207.622 316.664 208.586 316.948 209.41 317.516C210.242 318.084 210.862 318.848 211.27 319.808C211.678 320.768 211.798 321.832 211.63 323C211.51 323.872 211.238 324.688 210.814 325.448C210.398 326.208 209.874 326.88 209.242 327.464C208.61 328.04 207.91 328.492 207.142 328.82C206.374 329.148 205.574 329.312 204.742 329.312ZM205.018 327.296C205.77 327.296 206.474 327.1 207.13 326.708C207.786 326.308 208.338 325.784 208.786 325.136C209.234 324.48 209.51 323.768 209.614 323C209.726 322.216 209.65 321.496 209.386 320.84C209.122 320.184 208.718 319.66 208.174 319.268C207.63 318.876 206.986 318.68 206.242 318.68C205.49 318.68 204.786 318.88 204.13 319.28C203.474 319.672 202.922 320.196 202.474 320.852C202.034 321.508 201.758 322.224 201.646 323C201.534 323.8 201.61 324.528 201.874 325.184C202.146 325.832 202.558 326.348 203.11 326.732C203.662 327.108 204.298 327.296 205.018 327.296ZM217.6 329H215.56L213.22 317H215.188L217 326.156L221.344 317H223.42L225.208 326.156L229.552 317H231.544L225.844 329H223.792L221.992 319.76L217.6 329ZM245.572 313.964C244.868 313.956 244.188 314.072 243.532 314.312C242.876 314.552 242.324 314.884 241.876 315.308C241.436 315.732 241.176 316.224 241.096 316.784C241.008 317.456 241.116 317.972 241.42 318.332C241.732 318.684 242.184 318.948 242.776 319.124C243.368 319.3 244.036 319.456 244.78 319.592C245.844 319.776 246.812 320.068 247.684 320.468C248.556 320.86 249.228 321.384 249.7 322.04C250.172 322.696 250.34 323.504 250.204 324.464C250.084 325.36 249.728 326.152 249.136 326.84C248.552 327.528 247.824 328.084 246.952 328.508C246.088 328.924 245.16 329.176 244.168 329.264L243.832 331.688H242.356L242.704 329.264C241.896 329.2 241.144 329.02 240.448 328.724C239.752 328.428 239.164 328.032 238.684 327.536C238.212 327.032 237.904 326.448 237.76 325.784L239.74 325.076C239.844 325.524 240.088 325.916 240.472 326.252C240.856 326.58 241.332 326.836 241.9 327.02C242.468 327.204 243.068 327.296 243.7 327.296C244.412 327.296 245.096 327.18 245.752 326.948C246.408 326.708 246.956 326.376 247.396 325.952C247.844 325.528 248.108 325.032 248.188 324.464C248.268 323.88 248.132 323.404 247.78 323.036C247.436 322.66 246.968 322.364 246.376 322.148C245.784 321.924 245.156 321.752 244.492 321.632C243.364 321.44 242.364 321.168 241.492 320.816C240.628 320.456 239.972 319.956 239.524 319.316C239.084 318.676 238.936 317.832 239.08 316.784C239.208 315.888 239.564 315.096 240.148 314.408C240.732 313.712 241.46 313.156 242.332 312.74C243.212 312.324 244.144 312.072 245.128 311.984L245.476 309.512H246.952L246.604 311.984C247.388 312.056 248.124 312.24 248.812 312.536C249.508 312.824 250.096 313.216 250.576 313.712C251.064 314.208 251.384 314.8 251.536 315.488L249.532 316.184C249.436 315.728 249.192 315.336 248.8 315.008C248.416 314.672 247.94 314.416 247.372 314.24C246.804 314.056 246.204 313.964 245.572 313.964ZM256.966 329.312C255.926 329.312 255.018 329.06 254.242 328.556C253.474 328.052 252.902 327.38 252.526 326.54C252.15 325.692 252.03 324.76 252.166 323.744H254.182C254.094 324.392 254.17 324.988 254.41 325.532C254.65 326.068 255.018 326.496 255.514 326.816C256.01 327.136 256.586 327.296 257.242 327.296C257.89 327.296 258.506 327.136 259.09 326.816C259.674 326.496 260.162 326.068 260.554 325.532C260.954 324.988 261.198 324.392 261.286 323.744C261.382 323.096 261.314 322.5 261.082 321.956C260.858 321.412 260.482 320.98 259.954 320.66C259.426 320.332 258.754 320.168 257.938 320.168H253.786L256.534 312.2H264.502L264.226 314.216H257.89L256.546 318.152L258.298 318.164C259.442 318.188 260.41 318.444 261.202 318.932C262.002 319.412 262.59 320.068 262.966 320.9C263.342 321.724 263.454 322.672 263.302 323.744C263.198 324.504 262.954 325.224 262.57 325.904C262.186 326.576 261.702 327.168 261.118 327.68C260.534 328.192 259.886 328.592 259.174 328.88C258.47 329.168 257.734 329.312 256.966 329.312ZM270.413 329.312C269.413 329.312 268.545 329.088 267.809 328.64C267.081 328.184 266.489 327.556 266.033 326.756C265.585 325.956 265.285 325.032 265.133 323.984C264.989 322.928 265.001 321.8 265.169 320.6C265.337 319.4 265.641 318.272 266.081 317.216C266.529 316.16 267.093 315.236 267.773 314.444C268.453 313.644 269.221 313.02 270.077 312.572C270.933 312.116 271.861 311.888 272.861 311.888C273.853 311.888 274.713 312.116 275.441 312.572C276.177 313.02 276.765 313.644 277.205 314.444C277.653 315.236 277.953 316.16 278.105 317.216C278.257 318.272 278.249 319.4 278.081 320.6C277.913 321.8 277.605 322.928 277.157 323.984C276.709 325.032 276.149 325.956 275.477 326.756C274.813 327.556 274.049 328.184 273.185 328.64C272.329 329.088 271.405 329.312 270.413 329.312ZM270.689 327.296C271.697 327.296 272.581 326.988 273.341 326.372C274.101 325.748 274.721 324.928 275.201 323.912C275.681 322.896 276.005 321.792 276.173 320.6C276.357 319.344 276.345 318.212 276.137 317.204C275.929 316.188 275.525 315.384 274.925 314.792C274.333 314.2 273.549 313.904 272.573 313.904C271.805 313.904 271.109 314.084 270.485 314.444C269.869 314.804 269.325 315.296 268.853 315.92C268.389 316.544 268.009 317.26 267.713 318.068C267.417 318.868 267.205 319.712 267.077 320.6C266.909 321.792 266.925 322.9 267.125 323.924C267.325 324.94 267.717 325.756 268.301 326.372C268.893 326.988 269.689 327.296 270.689 327.296ZM284.429 329.312C283.429 329.312 282.561 329.088 281.825 328.64C281.097 328.184 280.505 327.556 280.049 326.756C279.601 325.956 279.301 325.032 279.149 323.984C279.005 322.928 279.017 321.8 279.185 320.6C279.353 319.4 279.657 318.272 280.097 317.216C280.545 316.16 281.109 315.236 281.789 314.444C282.469 313.644 283.237 313.02 284.093 312.572C284.949 312.116 285.877 311.888 286.877 311.888C287.869 311.888 288.729 312.116 289.457 312.572C290.193 313.02 290.781 313.644 291.221 314.444C291.669 315.236 291.969 316.16 292.121 317.216C292.273 318.272 292.265 319.4 292.097 320.6C291.929 321.8 291.621 322.928 291.173 323.984C290.725 325.032 290.165 325.956 289.493 326.756C288.829 327.556 288.065 328.184 287.201 328.64C286.345 329.088 285.421 329.312 284.429 329.312ZM284.705 327.296C285.713 327.296 286.597 326.988 287.357 326.372C288.117 325.748 288.737 324.928 289.217 323.912C289.697 322.896 290.021 321.792 290.189 320.6C290.373 319.344 290.361 318.212 290.153 317.204C289.945 316.188 289.541 315.384 288.941 314.792C288.349 314.2 287.565 313.904 286.589 313.904C285.821 313.904 285.125 314.084 284.501 314.444C283.885 314.804 283.341 315.296 282.869 315.92C282.405 316.544 282.025 317.26 281.729 318.068C281.433 318.868 281.221 319.712 281.093 320.6C280.925 321.792 280.941 322.9 281.141 323.924C281.341 324.94 281.733 325.756 282.317 326.372C282.909 326.988 283.705 327.296 284.705 327.296ZM309.89 311H311.57V329H309.89V326.756C309.474 327.524 308.902 328.144 308.174 328.616C307.454 329.08 306.598 329.312 305.606 329.312C304.734 329.312 303.918 329.148 303.158 328.82C302.398 328.492 301.726 328.04 301.142 327.464C300.566 326.88 300.114 326.208 299.786 325.448C299.458 324.688 299.294 323.872 299.294 323C299.294 322.128 299.458 321.312 299.786 320.552C300.114 319.784 300.566 319.112 301.142 318.536C301.726 317.952 302.398 317.496 303.158 317.168C303.918 316.84 304.734 316.676 305.606 316.676C306.598 316.676 307.454 316.912 308.174 317.384C308.902 317.848 309.474 318.46 309.89 319.22V311ZM305.618 327.68C306.474 327.68 307.21 327.472 307.826 327.056C308.442 326.632 308.914 326.064 309.242 325.352C309.578 324.64 309.746 323.856 309.746 323C309.746 322.12 309.578 321.328 309.242 320.624C308.906 319.912 308.43 319.348 307.814 318.932C307.198 318.516 306.466 318.308 305.618 318.308C304.77 318.308 303.998 318.52 303.302 318.944C302.606 319.36 302.05 319.924 301.634 320.636C301.218 321.348 301.01 322.136 301.01 323C301.01 323.872 301.222 324.664 301.646 325.376C302.07 326.08 302.63 326.64 303.326 327.056C304.03 327.472 304.794 327.68 305.618 327.68ZM313.972 324.404V317H315.652V324.068C315.652 324.724 315.812 325.32 316.132 325.856C316.452 326.392 316.88 326.82 317.416 327.14C317.96 327.46 318.556 327.62 319.204 327.62C319.86 327.62 320.452 327.46 320.98 327.14C321.516 326.82 321.944 326.392 322.264 325.856C322.584 325.32 322.744 324.724 322.744 324.068V317H324.424L324.436 329H322.756L322.744 327.32C322.32 327.928 321.768 328.412 321.088 328.772C320.416 329.132 319.68 329.312 318.88 329.312C317.976 329.312 317.152 329.092 316.408 328.652C315.664 328.212 315.072 327.62 314.632 326.876C314.192 326.132 313.972 325.308 313.972 324.404ZM332.013 329.312C330.909 329.312 329.901 329.028 328.989 328.46C328.085 327.892 327.361 327.132 326.817 326.18C326.281 325.22 326.013 324.16 326.013 323C326.013 322.12 326.169 321.3 326.481 320.54C326.793 319.772 327.221 319.1 327.765 318.524C328.317 317.94 328.957 317.484 329.685 317.156C330.413 316.828 331.189 316.664 332.013 316.664C332.901 316.664 333.717 316.84 334.461 317.192C335.213 317.544 335.857 318.036 336.393 318.668C336.937 319.3 337.345 320.04 337.617 320.888C337.897 321.736 338.013 322.652 337.965 323.636H327.789C327.885 324.396 328.125 325.076 328.509 325.676C328.901 326.276 329.397 326.752 329.997 327.104C330.605 327.448 331.277 327.624 332.013 327.632C332.813 327.632 333.533 327.424 334.173 327.008C334.821 326.592 335.341 326.02 335.733 325.292L337.437 325.688C336.957 326.752 336.233 327.624 335.265 328.304C334.297 328.976 333.213 329.312 332.013 329.312ZM327.741 322.28H336.273C336.217 321.536 335.989 320.856 335.589 320.24C335.197 319.616 334.689 319.12 334.065 318.752C333.441 318.376 332.757 318.188 332.013 318.188C331.269 318.188 330.589 318.372 329.973 318.74C329.357 319.1 328.853 319.592 328.461 320.216C328.069 320.832 327.829 321.52 327.741 322.28ZM352.037 318.68H349.169L349.157 329H347.477L347.489 318.68H345.317V317H347.489L347.477 313.232H349.157L349.169 317H352.037V318.68ZM359.13 329.312C358.026 329.312 357.018 329.028 356.106 328.46C355.202 327.892 354.478 327.132 353.934 326.18C353.398 325.22 353.13 324.16 353.13 323C353.13 322.12 353.286 321.3 353.598 320.54C353.91 319.772 354.338 319.1 354.882 318.524C355.434 317.94 356.074 317.484 356.802 317.156C357.53 316.828 358.306 316.664 359.13 316.664C360.234 316.664 361.238 316.948 362.142 317.516C363.054 318.084 363.778 318.848 364.314 319.808C364.858 320.768 365.13 321.832 365.13 323C365.13 323.872 364.974 324.688 364.662 325.448C364.35 326.208 363.918 326.88 363.366 327.464C362.822 328.04 362.186 328.492 361.458 328.82C360.738 329.148 359.962 329.312 359.13 329.312ZM359.13 327.632C359.946 327.632 360.678 327.42 361.326 326.996C361.982 326.564 362.498 325.996 362.874 325.292C363.258 324.588 363.45 323.824 363.45 323C363.45 322.16 363.258 321.388 362.874 320.684C362.49 319.972 361.97 319.404 361.314 318.98C360.666 318.556 359.938 318.344 359.13 318.344C358.314 318.344 357.578 318.56 356.922 318.992C356.274 319.416 355.758 319.98 355.374 320.684C354.998 321.388 354.81 322.16 354.81 323C354.81 323.864 355.006 324.648 355.398 325.352C355.79 326.048 356.314 326.604 356.97 327.02C357.626 327.428 358.346 327.632 359.13 327.632ZM372.565 324.404V317H374.245V324.068C374.245 324.724 374.405 325.32 374.725 325.856C375.045 326.392 375.473 326.82 376.009 327.14C376.553 327.46 377.149 327.62 377.797 327.62C378.453 327.62 379.045 327.46 379.573 327.14C380.109 326.82 380.537 326.392 380.857 325.856C381.177 325.32 381.337 324.724 381.337 324.068V317H383.017L383.029 329H381.349L381.337 327.32C380.913 327.928 380.361 328.412 379.681 328.772C379.009 329.132 378.273 329.312 377.473 329.312C376.569 329.312 375.745 329.092 375.001 328.652C374.257 328.212 373.665 327.62 373.225 326.876C372.785 326.132 372.565 325.308 372.565 324.404ZM395.884 321.572V329H394.204V321.908C394.204 321.252 394.044 320.656 393.724 320.12C393.404 319.584 392.976 319.156 392.44 318.836C391.904 318.516 391.308 318.356 390.652 318.356C390.004 318.356 389.408 318.516 388.864 318.836C388.328 319.156 387.9 319.584 387.58 320.12C387.26 320.656 387.1 321.252 387.1 321.908V329H385.42V317H387.1V318.656C387.524 318.048 388.076 317.564 388.756 317.204C389.436 316.844 390.176 316.664 390.976 316.664C391.88 316.664 392.704 316.884 393.448 317.324C394.192 317.764 394.784 318.356 395.224 319.1C395.664 319.844 395.884 320.668 395.884 321.572ZM403.333 329.312C402.229 329.312 401.221 329.028 400.309 328.46C399.405 327.892 398.681 327.132 398.137 326.18C397.601 325.22 397.333 324.16 397.333 323C397.333 322.12 397.489 321.3 397.801 320.54C398.113 319.772 398.541 319.1 399.085 318.524C399.637 317.94 400.277 317.484 401.005 317.156C401.733 316.828 402.509 316.664 403.333 316.664C404.221 316.664 405.037 316.84 405.781 317.192C406.533 317.544 407.177 318.036 407.713 318.668C408.257 319.3 408.665 320.04 408.937 320.888C409.217 321.736 409.333 322.652 409.285 323.636H399.109C399.205 324.396 399.445 325.076 399.829 325.676C400.221 326.276 400.717 326.752 401.317 327.104C401.925 327.448 402.597 327.624 403.333 327.632C404.133 327.632 404.853 327.424 405.493 327.008C406.141 326.592 406.661 326.02 407.053 325.292L408.757 325.688C408.277 326.752 407.553 327.624 406.585 328.304C405.617 328.976 404.533 329.312 403.333 329.312ZM399.061 322.28H407.593C407.537 321.536 407.309 320.856 406.909 320.24C406.517 319.616 406.009 319.12 405.385 318.752C404.761 318.376 404.077 318.188 403.333 318.188C402.589 318.188 401.909 318.372 401.293 318.74C400.677 319.1 400.173 319.592 399.781 320.216C399.389 320.832 399.149 321.52 399.061 322.28ZM410.019 329L414.411 322.976L410.031 316.964H412.107L415.455 321.536L418.791 316.964H420.855L416.487 322.976L420.879 329H418.803L415.455 324.392L412.095 329H410.019ZM424.718 335H423.038V317H424.718V319.244C425.134 318.484 425.702 317.868 426.422 317.396C427.142 316.924 427.998 316.688 428.99 316.688C429.862 316.688 430.678 316.852 431.438 317.18C432.206 317.508 432.878 317.964 433.454 318.548C434.03 319.124 434.482 319.792 434.81 320.552C435.138 321.312 435.302 322.128 435.302 323C435.302 323.872 435.138 324.692 434.81 325.46C434.482 326.228 434.03 326.904 433.454 327.488C432.878 328.064 432.206 328.516 431.438 328.844C430.678 329.172 429.862 329.336 428.99 329.336C427.998 329.336 427.142 329.1 426.422 328.628C425.702 328.156 425.134 327.54 424.718 326.78V335ZM428.978 318.32C428.138 318.32 427.406 318.532 426.782 318.956C426.166 319.372 425.69 319.932 425.354 320.636C425.018 321.34 424.85 322.128 424.85 323C424.85 323.856 425.014 324.64 425.342 325.352C425.678 326.064 426.154 326.632 426.77 327.056C427.394 327.48 428.13 327.692 428.978 327.692C429.81 327.692 430.574 327.484 431.27 327.068C431.974 326.652 432.538 326.092 432.962 325.388C433.386 324.676 433.598 323.88 433.598 323C433.598 322.144 433.39 321.364 432.974 320.66C432.558 319.948 432.002 319.38 431.306 318.956C430.61 318.532 429.834 318.32 428.978 318.32ZM442.497 329.312C441.393 329.312 440.385 329.028 439.473 328.46C438.569 327.892 437.845 327.132 437.301 326.18C436.765 325.22 436.497 324.16 436.497 323C436.497 322.12 436.653 321.3 436.965 320.54C437.277 319.772 437.705 319.1 438.249 318.524C438.801 317.94 439.441 317.484 440.169 317.156C440.897 316.828 441.673 316.664 442.497 316.664C443.385 316.664 444.201 316.84 444.945 317.192C445.697 317.544 446.341 318.036 446.877 318.668C447.421 319.3 447.829 320.04 448.101 320.888C448.381 321.736 448.497 322.652 448.449 323.636H438.273C438.369 324.396 438.609 325.076 438.993 325.676C439.385 326.276 439.881 326.752 440.481 327.104C441.089 327.448 441.761 327.624 442.497 327.632C443.297 327.632 444.017 327.424 444.657 327.008C445.305 326.592 445.825 326.02 446.217 325.292L447.921 325.688C447.441 326.752 446.717 327.624 445.749 328.304C444.781 328.976 443.697 329.312 442.497 329.312ZM438.225 322.28H446.757C446.701 321.536 446.473 320.856 446.073 320.24C445.681 319.616 445.173 319.12 444.549 318.752C443.925 318.376 443.241 318.188 442.497 318.188C441.753 318.188 441.073 318.372 440.457 318.74C439.841 319.1 439.337 319.592 438.945 320.216C438.553 320.832 438.313 321.52 438.225 322.28ZM458.957 325.988L460.457 326.804C459.913 327.564 459.221 328.172 458.381 328.628C457.549 329.084 456.645 329.312 455.669 329.312C454.565 329.312 453.557 329.028 452.645 328.46C451.741 327.892 451.017 327.132 450.473 326.18C449.937 325.22 449.669 324.16 449.669 323C449.669 322.12 449.825 321.3 450.137 320.54C450.449 319.772 450.877 319.1 451.421 318.524C451.973 317.94 452.613 317.484 453.341 317.156C454.069 316.828 454.845 316.664 455.669 316.664C456.645 316.664 457.549 316.892 458.381 317.348C459.221 317.804 459.913 318.416 460.457 319.184L458.957 319.988C458.541 319.46 458.041 319.056 457.457 318.776C456.873 318.488 456.277 318.344 455.669 318.344C454.861 318.344 454.129 318.56 453.473 318.992C452.817 319.416 452.297 319.98 451.913 320.684C451.537 321.388 451.349 322.16 451.349 323C451.349 323.84 451.541 324.612 451.925 325.316C452.317 326.02 452.841 326.584 453.497 327.008C454.153 327.424 454.877 327.632 455.669 327.632C456.325 327.632 456.941 327.48 457.517 327.176C458.093 326.872 458.573 326.476 458.957 325.988ZM468.756 318.68H465.888L465.876 329H464.196L464.208 318.68H462.036V317H464.208L464.196 313.232H465.876L465.888 317H468.756V318.68ZM475.849 329.312C474.745 329.312 473.737 329.028 472.825 328.46C471.921 327.892 471.197 327.132 470.653 326.18C470.117 325.22 469.849 324.16 469.849 323C469.849 322.12 470.005 321.3 470.317 320.54C470.629 319.772 471.057 319.1 471.601 318.524C472.153 317.94 472.793 317.484 473.521 317.156C474.249 316.828 475.025 316.664 475.849 316.664C476.737 316.664 477.553 316.84 478.297 317.192C479.049 317.544 479.693 318.036 480.229 318.668C480.773 319.3 481.181 320.04 481.453 320.888C481.733 321.736 481.849 322.652 481.801 323.636H471.625C471.721 324.396 471.961 325.076 472.345 325.676C472.737 326.276 473.233 326.752 473.833 327.104C474.441 327.448 475.113 327.624 475.849 327.632C476.649 327.632 477.369 327.424 478.009 327.008C478.657 326.592 479.177 326.02 479.569 325.292L481.273 325.688C480.793 326.752 480.069 327.624 479.101 328.304C478.133 328.976 477.049 329.312 475.849 329.312ZM471.577 322.28H480.109C480.053 321.536 479.825 320.856 479.425 320.24C479.033 319.616 478.525 319.12 477.901 318.752C477.277 318.376 476.593 318.188 475.849 318.188C475.105 318.188 474.425 318.372 473.809 318.74C473.193 319.1 472.689 319.592 472.297 320.216C471.905 320.832 471.665 321.52 471.577 322.28ZM493.617 311H495.297V329H493.617V326.756C493.201 327.524 492.629 328.144 491.901 328.616C491.181 329.08 490.325 329.312 489.333 329.312C488.461 329.312 487.645 329.148 486.885 328.82C486.125 328.492 485.453 328.04 484.869 327.464C484.293 326.88 483.841 326.208 483.513 325.448C483.185 324.688 483.021 323.872 483.021 323C483.021 322.128 483.185 321.312 483.513 320.552C483.841 319.784 484.293 319.112 484.869 318.536C485.453 317.952 486.125 317.496 486.885 317.168C487.645 316.84 488.461 316.676 489.333 316.676C490.325 316.676 491.181 316.912 491.901 317.384C492.629 317.848 493.201 318.46 493.617 319.22V311ZM489.345 327.68C490.201 327.68 490.937 327.472 491.553 327.056C492.169 326.632 492.641 326.064 492.969 325.352C493.305 324.64 493.473 323.856 493.473 323C493.473 322.12 493.305 321.328 492.969 320.624C492.633 319.912 492.157 319.348 491.541 318.932C490.925 318.516 490.193 318.308 489.345 318.308C488.497 318.308 487.725 318.52 487.029 318.944C486.333 319.36 485.777 319.924 485.361 320.636C484.945 321.348 484.737 322.136 484.737 323C484.737 323.872 484.949 324.664 485.373 325.376C485.797 326.08 486.357 326.64 487.053 327.056C487.757 327.472 488.521 327.68 489.345 327.68ZM86.1579 349.572V357H84.4779V349.908C84.4779 349.252 84.3179 348.656 83.9979 348.12C83.6779 347.584 83.2499 347.156 82.7139 346.836C82.1779 346.516 81.5819 346.356 80.9259 346.356C80.2779 346.356 79.6819 346.516 79.1379 346.836C78.6019 347.156 78.1739 347.584 77.8539 348.12C77.5339 348.656 77.3739 349.252 77.3739 349.908V357H75.6939V339H77.3739V346.656C77.7979 346.048 78.3499 345.564 79.0299 345.204C79.7099 344.844 80.4499 344.664 81.2499 344.664C82.1539 344.664 82.9779 344.884 83.7219 345.324C84.4659 345.764 85.0579 346.356 85.4979 347.1C85.9379 347.844 86.1579 348.668 86.1579 349.572ZM93.6067 357.312C92.5027 357.312 91.4947 357.028 90.5827 356.46C89.6787 355.892 88.9547 355.132 88.4107 354.18C87.8747 353.22 87.6067 352.16 87.6067 351C87.6067 350.12 87.7627 349.3 88.0747 348.54C88.3867 347.772 88.8147 347.1 89.3587 346.524C89.9107 345.94 90.5507 345.484 91.2787 345.156C92.0067 344.828 92.7827 344.664 93.6067 344.664C94.7107 344.664 95.7147 344.948 96.6187 345.516C97.5307 346.084 98.2547 346.848 98.7907 347.808C99.3347 348.768 99.6067 349.832 99.6067 351C99.6067 351.872 99.4507 352.688 99.1387 353.448C98.8267 354.208 98.3947 354.88 97.8427 355.464C97.2987 356.04 96.6627 356.492 95.9347 356.82C95.2147 357.148 94.4387 357.312 93.6067 357.312ZM93.6067 355.632C94.4227 355.632 95.1547 355.42 95.8027 354.996C96.4587 354.564 96.9747 353.996 97.3507 353.292C97.7347 352.588 97.9267 351.824 97.9267 351C97.9267 350.16 97.7347 349.388 97.3507 348.684C96.9667 347.972 96.4467 347.404 95.7907 346.98C95.1427 346.556 94.4147 346.344 93.6067 346.344C92.7907 346.344 92.0547 346.56 91.3987 346.992C90.7507 347.416 90.2347 347.98 89.8507 348.684C89.4747 349.388 89.2867 350.16 89.2867 351C89.2867 351.864 89.4827 352.648 89.8747 353.352C90.2667 354.048 90.7907 354.604 91.4467 355.02C92.1027 355.428 92.8227 355.632 93.6067 355.632ZM101.639 357V345H103.319V346.656C103.751 346.048 104.303 345.564 104.975 345.204C105.647 344.844 106.383 344.664 107.183 344.664C108.087 344.664 108.915 344.888 109.667 345.336C110.419 345.776 111.007 346.364 111.431 347.1C111.855 346.364 112.439 345.776 113.183 345.336C113.927 344.888 114.751 344.664 115.655 344.664C116.559 344.664 117.383 344.884 118.127 345.324C118.871 345.764 119.463 346.356 119.903 347.1C120.343 347.844 120.563 348.668 120.563 349.572V357H118.883V349.944C118.883 349.304 118.727 348.712 118.415 348.168C118.103 347.624 117.683 347.188 117.155 346.86C116.635 346.524 116.055 346.356 115.415 346.356C114.775 346.356 114.191 346.512 113.663 346.824C113.143 347.128 112.727 347.552 112.415 348.096C112.103 348.632 111.947 349.248 111.947 349.944V357H110.267V349.944C110.267 349.248 110.111 348.632 109.799 348.096C109.487 347.552 109.067 347.128 108.539 346.824C108.011 346.512 107.427 346.356 106.787 346.356C106.155 346.356 105.575 346.524 105.047 346.86C104.519 347.188 104.099 347.624 103.787 348.168C103.475 348.712 103.319 349.304 103.319 349.944V357H101.639ZM128.013 357.312C126.909 357.312 125.901 357.028 124.989 356.46C124.085 355.892 123.361 355.132 122.817 354.18C122.281 353.22 122.013 352.16 122.013 351C122.013 350.12 122.169 349.3 122.481 348.54C122.793 347.772 123.221 347.1 123.765 346.524C124.317 345.94 124.957 345.484 125.685 345.156C126.413 344.828 127.189 344.664 128.013 344.664C128.901 344.664 129.717 344.84 130.461 345.192C131.213 345.544 131.857 346.036 132.393 346.668C132.937 347.3 133.345 348.04 133.617 348.888C133.897 349.736 134.013 350.652 133.965 351.636H123.789C123.885 352.396 124.125 353.076 124.509 353.676C124.901 354.276 125.397 354.752 125.997 355.104C126.605 355.448 127.277 355.624 128.013 355.632C128.813 355.632 129.533 355.424 130.173 355.008C130.821 354.592 131.341 354.02 131.733 353.292L133.437 353.688C132.957 354.752 132.233 355.624 131.265 356.304C130.297 356.976 129.213 357.312 128.013 357.312ZM123.741 350.28H132.273C132.217 349.536 131.989 348.856 131.589 348.24C131.197 347.616 130.689 347.12 130.065 346.752C129.441 346.376 128.757 346.188 128.013 346.188C127.269 346.188 126.589 346.372 125.973 346.74C125.357 347.1 124.853 347.592 124.461 348.216C124.069 348.832 123.829 349.52 123.741 350.28ZM141.905 357V345H143.585V346.656C144.009 346.048 144.561 345.564 145.241 345.204C145.921 344.844 146.661 344.664 147.461 344.664C147.925 344.664 148.373 344.724 148.805 344.844L148.121 346.512C147.785 346.408 147.457 346.356 147.137 346.356C146.489 346.356 145.893 346.516 145.349 346.836C144.813 347.156 144.385 347.584 144.065 348.12C143.745 348.656 143.585 349.252 143.585 349.908V357H141.905ZM154.966 357.312C153.862 357.312 152.854 357.028 151.942 356.46C151.038 355.892 150.314 355.132 149.77 354.18C149.234 353.22 148.966 352.16 148.966 351C148.966 350.12 149.122 349.3 149.434 348.54C149.746 347.772 150.174 347.1 150.718 346.524C151.27 345.94 151.91 345.484 152.638 345.156C153.366 344.828 154.142 344.664 154.966 344.664C155.854 344.664 156.67 344.84 157.414 345.192C158.166 345.544 158.81 346.036 159.346 346.668C159.89 347.3 160.298 348.04 160.57 348.888C160.85 349.736 160.966 350.652 160.918 351.636H150.742C150.838 352.396 151.078 353.076 151.462 353.676C151.854 354.276 152.35 354.752 152.95 355.104C153.558 355.448 154.23 355.624 154.966 355.632C155.766 355.632 156.486 355.424 157.126 355.008C157.774 354.592 158.294 354.02 158.686 353.292L160.39 353.688C159.91 354.752 159.186 355.624 158.218 356.304C157.25 356.976 156.166 357.312 154.966 357.312ZM150.694 350.28H159.226C159.17 349.536 158.942 348.856 158.542 348.24C158.15 347.616 157.642 347.12 157.018 346.752C156.394 346.376 155.71 346.188 154.966 346.188C154.222 346.188 153.542 346.372 152.926 346.74C152.31 347.1 151.806 347.592 151.414 348.216C151.022 348.832 150.782 349.52 150.694 350.28ZM164.655 363H162.975V345H164.655V347.244C165.071 346.484 165.639 345.868 166.359 345.396C167.079 344.924 167.935 344.688 168.927 344.688C169.799 344.688 170.615 344.852 171.375 345.18C172.143 345.508 172.815 345.964 173.391 346.548C173.967 347.124 174.419 347.792 174.747 348.552C175.075 349.312 175.239 350.128 175.239 351C175.239 351.872 175.075 352.692 174.747 353.46C174.419 354.228 173.967 354.904 173.391 355.488C172.815 356.064 172.143 356.516 171.375 356.844C170.615 357.172 169.799 357.336 168.927 357.336C167.935 357.336 167.079 357.1 166.359 356.628C165.639 356.156 165.071 355.54 164.655 354.78V363ZM168.915 346.32C168.075 346.32 167.343 346.532 166.719 346.956C166.103 347.372 165.627 347.932 165.291 348.636C164.955 349.34 164.787 350.128 164.787 351C164.787 351.856 164.951 352.64 165.279 353.352C165.615 354.064 166.091 354.632 166.707 355.056C167.331 355.48 168.067 355.692 168.915 355.692C169.747 355.692 170.511 355.484 171.207 355.068C171.911 354.652 172.475 354.092 172.899 353.388C173.323 352.676 173.535 351.88 173.535 351C173.535 350.144 173.327 349.364 172.911 348.66C172.495 347.948 171.939 347.38 171.243 346.956C170.547 346.532 169.771 346.32 168.915 346.32ZM187.019 345H188.699V357H187.019L186.959 354.768C186.567 355.528 186.019 356.144 185.315 356.616C184.611 357.08 183.771 357.312 182.795 357.312C181.915 357.312 181.091 357.148 180.323 356.82C179.555 356.484 178.879 356.024 178.295 355.44C177.711 354.856 177.255 354.18 176.927 353.412C176.599 352.644 176.435 351.82 176.435 350.94C176.435 350.076 176.595 349.264 176.915 348.504C177.243 347.744 177.691 347.076 178.259 346.5C178.835 345.924 179.499 345.476 180.251 345.156C181.011 344.828 181.823 344.664 182.687 344.664C183.687 344.664 184.559 344.904 185.303 345.384C186.047 345.856 186.639 346.476 187.079 347.244L187.019 345ZM182.759 355.68C183.615 355.68 184.351 355.472 184.967 355.056C185.583 354.632 186.055 354.064 186.383 353.352C186.719 352.64 186.887 351.856 186.887 351C186.887 350.12 186.719 349.328 186.383 348.624C186.047 347.912 185.571 347.348 184.955 346.932C184.339 346.516 183.607 346.308 182.759 346.308C181.911 346.308 181.135 346.52 180.431 346.944C179.735 347.36 179.179 347.924 178.763 348.636C178.355 349.348 178.151 350.136 178.151 351C178.151 351.872 178.363 352.664 178.787 353.376C179.211 354.08 179.771 354.64 180.467 355.056C181.171 355.472 181.935 355.68 182.759 355.68ZM191.1 345H192.78V357H191.1V345ZM191.952 342.9C191.68 342.9 191.448 342.812 191.256 342.636C191.072 342.452 190.98 342.224 190.98 341.952C190.98 341.68 191.072 341.456 191.256 341.28C191.448 341.096 191.68 341.004 191.952 341.004C192.216 341.004 192.44 341.096 192.624 341.28C192.816 341.456 192.912 341.68 192.912 341.952C192.912 342.224 192.82 342.452 192.636 342.636C192.452 342.812 192.224 342.9 191.952 342.9ZM195.624 357V345H197.304V346.656C197.728 346.048 198.28 345.564 198.96 345.204C199.64 344.844 200.38 344.664 201.18 344.664C201.644 344.664 202.092 344.724 202.524 344.844L201.84 346.512C201.504 346.408 201.176 346.356 200.856 346.356C200.208 346.356 199.612 346.516 199.068 346.836C198.532 347.156 198.104 347.584 197.784 348.12C197.464 348.656 197.304 349.252 197.304 349.908V357H195.624ZM207.746 357.228C207.09 357.212 206.45 357.092 205.826 356.868C205.202 356.644 204.658 356.34 204.194 355.956C203.73 355.572 203.398 355.136 203.198 354.648L204.65 354.024C204.778 354.336 205.014 354.624 205.358 354.888C205.71 355.144 206.11 355.352 206.558 355.512C207.006 355.664 207.45 355.74 207.89 355.74C208.378 355.74 208.834 355.66 209.258 355.5C209.682 355.34 210.026 355.112 210.29 354.816C210.562 354.512 210.698 354.156 210.698 353.748C210.698 353.308 210.554 352.964 210.266 352.716C209.978 352.46 209.614 352.26 209.174 352.116C208.734 351.964 208.282 351.82 207.818 351.684C206.97 351.452 206.222 351.196 205.574 350.916C204.926 350.636 204.418 350.28 204.05 349.848C203.69 349.408 203.51 348.844 203.51 348.156C203.51 347.428 203.714 346.8 204.122 346.272C204.538 345.736 205.078 345.324 205.742 345.036C206.414 344.74 207.13 344.592 207.89 344.592C208.866 344.592 209.754 344.804 210.554 345.228C211.362 345.652 211.946 346.216 212.306 346.92L210.95 347.724C210.806 347.396 210.578 347.112 210.266 346.872C209.954 346.632 209.598 346.444 209.198 346.308C208.806 346.172 208.406 346.1 207.998 346.092C207.486 346.084 207.01 346.16 206.57 346.32C206.13 346.472 205.774 346.7 205.502 347.004C205.238 347.308 205.106 347.68 205.106 348.12C205.106 348.56 205.238 348.896 205.502 349.128C205.766 349.352 206.122 349.536 206.57 349.68C207.026 349.816 207.538 349.976 208.106 350.16C208.834 350.392 209.518 350.656 210.158 350.952C210.798 351.248 211.314 351.616 211.706 352.056C212.098 352.496 212.29 353.052 212.282 353.724C212.282 354.444 212.066 355.072 211.634 355.608C211.202 356.144 210.642 356.556 209.954 356.844C209.266 357.124 208.53 357.252 207.746 357.228ZM214.771 357.312C214.507 357.312 214.283 357.216 214.099 357.024C213.915 356.84 213.823 356.612 213.823 356.34C213.823 356.084 213.915 355.864 214.099 355.68C214.283 355.488 214.507 355.392 214.771 355.392C215.043 355.392 215.271 355.488 215.455 355.68C215.647 355.864 215.743 356.084 215.743 356.34C215.743 356.612 215.647 356.84 215.455 357.024C215.271 357.216 215.043 357.312 214.771 357.312ZM237.089 340.2V341.88H231.329V357H229.649V341.88H223.901V340.2H237.089ZM249.963 349.572V357H248.283V349.908C248.283 349.252 248.123 348.656 247.803 348.12C247.483 347.584 247.055 347.156 246.519 346.836C245.983 346.516 245.387 346.356 244.731 346.356C244.083 346.356 243.487 346.516 242.943 346.836C242.407 347.156 241.979 347.584 241.659 348.12C241.339 348.656 241.179 349.252 241.179 349.908V357H239.499V339H241.179V346.656C241.603 346.048 242.155 345.564 242.835 345.204C243.515 344.844 244.255 344.664 245.055 344.664C245.959 344.664 246.783 344.884 247.527 345.324C248.271 345.764 248.863 346.356 249.303 347.1C249.743 347.844 249.963 348.668 249.963 349.572ZM257.411 357.312C256.307 357.312 255.299 357.028 254.387 356.46C253.483 355.892 252.759 355.132 252.215 354.18C251.679 353.22 251.411 352.16 251.411 351C251.411 350.12 251.567 349.3 251.879 348.54C252.191 347.772 252.619 347.1 253.163 346.524C253.715 345.94 254.355 345.484 255.083 345.156C255.811 344.828 256.587 344.664 257.411 344.664C258.299 344.664 259.115 344.84 259.859 345.192C260.611 345.544 261.255 346.036 261.791 346.668C262.335 347.3 262.743 348.04 263.015 348.888C263.295 349.736 263.411 350.652 263.363 351.636H253.187C253.283 352.396 253.523 353.076 253.907 353.676C254.299 354.276 254.795 354.752 255.395 355.104C256.003 355.448 256.675 355.624 257.411 355.632C258.211 355.632 258.931 355.424 259.571 355.008C260.219 354.592 260.739 354.02 261.131 353.292L262.835 353.688C262.355 354.752 261.631 355.624 260.663 356.304C259.695 356.976 258.611 357.312 257.411 357.312ZM253.139 350.28H261.671C261.615 349.536 261.387 348.856 260.987 348.24C260.595 347.616 260.087 347.12 259.463 346.752C258.839 346.376 258.155 346.188 257.411 346.188C256.667 346.188 255.987 346.372 255.371 346.74C254.755 347.1 254.251 347.592 253.859 348.216C253.467 348.832 253.227 349.52 253.139 350.28ZM275.011 357.228C274.355 357.212 273.715 357.092 273.091 356.868C272.467 356.644 271.923 356.34 271.459 355.956C270.995 355.572 270.663 355.136 270.463 354.648L271.915 354.024C272.043 354.336 272.279 354.624 272.623 354.888C272.975 355.144 273.375 355.352 273.823 355.512C274.271 355.664 274.715 355.74 275.155 355.74C275.643 355.74 276.099 355.66 276.523 355.5C276.947 355.34 277.291 355.112 277.555 354.816C277.827 354.512 277.963 354.156 277.963 353.748C277.963 353.308 277.819 352.964 277.531 352.716C277.243 352.46 276.879 352.26 276.439 352.116C275.999 351.964 275.547 351.82 275.083 351.684C274.235 351.452 273.487 351.196 272.839 350.916C272.191 350.636 271.683 350.28 271.315 349.848C270.955 349.408 270.775 348.844 270.775 348.156C270.775 347.428 270.979 346.8 271.387 346.272C271.803 345.736 272.343 345.324 273.007 345.036C273.679 344.74 274.395 344.592 275.155 344.592C276.131 344.592 277.019 344.804 277.819 345.228C278.627 345.652 279.211 346.216 279.571 346.92L278.215 347.724C278.071 347.396 277.843 347.112 277.531 346.872C277.219 346.632 276.863 346.444 276.463 346.308C276.071 346.172 275.671 346.1 275.263 346.092C274.751 346.084 274.275 346.16 273.835 346.32C273.395 346.472 273.039 346.7 272.767 347.004C272.503 347.308 272.371 347.68 272.371 348.12C272.371 348.56 272.503 348.896 272.767 349.128C273.031 349.352 273.387 349.536 273.835 349.68C274.291 349.816 274.803 349.976 275.371 350.16C276.099 350.392 276.783 350.656 277.423 350.952C278.063 351.248 278.579 351.616 278.971 352.056C279.363 352.496 279.555 353.052 279.547 353.724C279.547 354.444 279.331 355.072 278.899 355.608C278.467 356.144 277.907 356.556 277.219 356.844C276.531 357.124 275.795 357.252 275.011 357.228ZM286.802 357.312C285.698 357.312 284.69 357.028 283.778 356.46C282.874 355.892 282.15 355.132 281.606 354.18C281.07 353.22 280.802 352.16 280.802 351C280.802 350.12 280.958 349.3 281.27 348.54C281.582 347.772 282.01 347.1 282.554 346.524C283.106 345.94 283.746 345.484 284.474 345.156C285.202 344.828 285.978 344.664 286.802 344.664C287.69 344.664 288.506 344.84 289.25 345.192C290.002 345.544 290.646 346.036 291.182 346.668C291.726 347.3 292.134 348.04 292.406 348.888C292.686 349.736 292.802 350.652 292.754 351.636H282.578C282.674 352.396 282.914 353.076 283.298 353.676C283.69 354.276 284.186 354.752 284.786 355.104C285.394 355.448 286.066 355.624 286.802 355.632C287.602 355.632 288.322 355.424 288.962 355.008C289.61 354.592 290.13 354.02 290.522 353.292L292.226 353.688C291.746 354.752 291.022 355.624 290.054 356.304C289.086 356.976 288.002 357.312 286.802 357.312ZM282.53 350.28H291.062C291.006 349.536 290.778 348.856 290.378 348.24C289.986 347.616 289.478 347.12 288.854 346.752C288.23 346.376 287.546 346.188 286.802 346.188C286.058 346.188 285.378 346.372 284.762 346.74C284.146 347.1 283.642 347.592 283.25 348.216C282.858 348.832 282.618 349.52 282.53 350.28ZM294.811 357V345H296.491V346.656C296.915 346.048 297.467 345.564 298.147 345.204C298.827 344.844 299.567 344.664 300.367 344.664C300.831 344.664 301.279 344.724 301.711 344.844L301.027 346.512C300.691 346.408 300.363 346.356 300.043 346.356C299.395 346.356 298.799 346.516 298.255 346.836C297.719 347.156 297.291 347.584 296.971 348.12C296.651 348.656 296.491 349.252 296.491 349.908V357H294.811ZM309.185 357H307.049L302.669 344.964H304.457L308.117 355.032L311.777 344.964H313.565L309.185 357ZM315.553 345H317.233V357H315.553V345ZM316.405 342.9C316.133 342.9 315.901 342.812 315.709 342.636C315.525 342.452 315.433 342.224 315.433 341.952C315.433 341.68 315.525 341.456 315.709 341.28C315.901 341.096 316.133 341.004 316.405 341.004C316.669 341.004 316.893 341.096 317.077 341.28C317.269 341.456 317.365 341.68 317.365 341.952C317.365 342.224 317.273 342.452 317.089 342.636C316.905 342.812 316.677 342.9 316.405 342.9ZM328.574 353.988L330.074 354.804C329.53 355.564 328.838 356.172 327.998 356.628C327.166 357.084 326.262 357.312 325.286 357.312C324.182 357.312 323.174 357.028 322.262 356.46C321.358 355.892 320.634 355.132 320.09 354.18C319.554 353.22 319.286 352.16 319.286 351C319.286 350.12 319.442 349.3 319.754 348.54C320.066 347.772 320.494 347.1 321.038 346.524C321.59 345.94 322.23 345.484 322.958 345.156C323.686 344.828 324.462 344.664 325.286 344.664C326.262 344.664 327.166 344.892 327.998 345.348C328.838 345.804 329.53 346.416 330.074 347.184L328.574 347.988C328.158 347.46 327.658 347.056 327.074 346.776C326.49 346.488 325.894 346.344 325.286 346.344C324.478 346.344 323.746 346.56 323.09 346.992C322.434 347.416 321.914 347.98 321.53 348.684C321.154 349.388 320.966 350.16 320.966 351C320.966 351.84 321.158 352.612 321.542 353.316C321.934 354.02 322.458 354.584 323.114 355.008C323.77 355.424 324.494 355.632 325.286 355.632C325.942 355.632 326.558 355.48 327.134 355.176C327.71 354.872 328.19 354.476 328.574 353.988ZM337.357 357.312C336.253 357.312 335.245 357.028 334.333 356.46C333.429 355.892 332.705 355.132 332.161 354.18C331.625 353.22 331.357 352.16 331.357 351C331.357 350.12 331.513 349.3 331.825 348.54C332.137 347.772 332.565 347.1 333.109 346.524C333.661 345.94 334.301 345.484 335.029 345.156C335.757 344.828 336.533 344.664 337.357 344.664C338.245 344.664 339.061 344.84 339.805 345.192C340.557 345.544 341.201 346.036 341.737 346.668C342.281 347.3 342.689 348.04 342.961 348.888C343.241 349.736 343.357 350.652 343.309 351.636H333.133C333.229 352.396 333.469 353.076 333.853 353.676C334.245 354.276 334.741 354.752 335.341 355.104C335.949 355.448 336.621 355.624 337.357 355.632C338.157 355.632 338.877 355.424 339.517 355.008C340.165 354.592 340.685 354.02 341.077 353.292L342.781 353.688C342.301 354.752 341.577 355.624 340.609 356.304C339.641 356.976 338.557 357.312 337.357 357.312ZM333.085 350.28H341.617C341.561 349.536 341.333 348.856 340.933 348.24C340.541 347.616 340.033 347.12 339.409 346.752C338.785 346.376 338.101 346.188 337.357 346.188C336.613 346.188 335.933 346.372 335.317 346.74C334.701 347.1 334.197 347.592 333.805 348.216C333.413 348.832 333.173 349.52 333.085 350.28ZM356.277 357H354.549L350.529 345H352.173L355.437 354.672L358.677 345H360.453L363.693 354.672L366.933 345H368.589L364.569 357H362.829L359.541 347.232L356.277 357ZM379.98 345H381.66V357H379.98L379.92 354.768C379.528 355.528 378.98 356.144 378.276 356.616C377.572 357.08 376.732 357.312 375.756 357.312C374.876 357.312 374.052 357.148 373.284 356.82C372.516 356.484 371.84 356.024 371.256 355.44C370.672 354.856 370.216 354.18 369.888 353.412C369.56 352.644 369.396 351.82 369.396 350.94C369.396 350.076 369.556 349.264 369.876 348.504C370.204 347.744 370.652 347.076 371.22 346.5C371.796 345.924 372.46 345.476 373.212 345.156C373.972 344.828 374.784 344.664 375.648 344.664C376.648 344.664 377.52 344.904 378.264 345.384C379.008 345.856 379.6 346.476 380.04 347.244L379.98 345ZM375.72 355.68C376.576 355.68 377.312 355.472 377.928 355.056C378.544 354.632 379.016 354.064 379.344 353.352C379.68 352.64 379.848 351.856 379.848 351C379.848 350.12 379.68 349.328 379.344 348.624C379.008 347.912 378.532 347.348 377.916 346.932C377.3 346.516 376.568 346.308 375.72 346.308C374.872 346.308 374.096 346.52 373.392 346.944C372.696 347.36 372.14 347.924 371.724 348.636C371.316 349.348 371.112 350.136 371.112 351C371.112 351.872 371.324 352.664 371.748 353.376C372.172 354.08 372.732 354.64 373.428 355.056C374.132 355.472 374.896 355.68 375.72 355.68ZM387.769 357.228C387.113 357.212 386.473 357.092 385.849 356.868C385.225 356.644 384.681 356.34 384.217 355.956C383.753 355.572 383.421 355.136 383.221 354.648L384.673 354.024C384.801 354.336 385.037 354.624 385.381 354.888C385.733 355.144 386.133 355.352 386.581 355.512C387.029 355.664 387.473 355.74 387.913 355.74C388.401 355.74 388.857 355.66 389.281 355.5C389.705 355.34 390.049 355.112 390.313 354.816C390.585 354.512 390.721 354.156 390.721 353.748C390.721 353.308 390.577 352.964 390.289 352.716C390.001 352.46 389.637 352.26 389.197 352.116C388.757 351.964 388.305 351.82 387.841 351.684C386.993 351.452 386.245 351.196 385.597 350.916C384.949 350.636 384.441 350.28 384.073 349.848C383.713 349.408 383.533 348.844 383.533 348.156C383.533 347.428 383.737 346.8 384.145 346.272C384.561 345.736 385.101 345.324 385.765 345.036C386.437 344.74 387.153 344.592 387.913 344.592C388.889 344.592 389.777 344.804 390.577 345.228C391.385 345.652 391.969 346.216 392.329 346.92L390.973 347.724C390.829 347.396 390.601 347.112 390.289 346.872C389.977 346.632 389.621 346.444 389.221 346.308C388.829 346.172 388.429 346.1 388.021 346.092C387.509 346.084 387.033 346.16 386.593 346.32C386.153 346.472 385.797 346.7 385.525 347.004C385.261 347.308 385.129 347.68 385.129 348.12C385.129 348.56 385.261 348.896 385.525 349.128C385.789 349.352 386.145 349.536 386.593 349.68C387.049 349.816 387.561 349.976 388.129 350.16C388.857 350.392 389.541 350.656 390.181 350.952C390.821 351.248 391.337 351.616 391.729 352.056C392.121 352.496 392.313 353.052 392.305 353.724C392.305 354.444 392.089 355.072 391.657 355.608C391.225 356.144 390.665 356.556 389.977 356.844C389.289 357.124 388.553 357.252 387.769 357.228ZM402.623 341.868V345H406.223V346.68H402.623V357H400.943V346.68H399.299V345H400.943V341.868C400.943 341.284 401.083 340.756 401.363 340.284C401.651 339.804 402.035 339.424 402.515 339.144C402.995 338.856 403.527 338.712 404.111 338.712C404.535 338.712 404.943 338.796 405.335 338.964C405.735 339.132 406.091 339.38 406.403 339.708L405.203 340.896C405.075 340.736 404.911 340.612 404.711 340.524C404.519 340.436 404.319 340.392 404.111 340.392C403.703 340.392 403.351 340.536 403.055 340.824C402.767 341.112 402.623 341.46 402.623 341.868ZM417.738 345H419.418V357H417.738L417.678 354.768C417.286 355.528 416.738 356.144 416.034 356.616C415.33 357.08 414.49 357.312 413.514 357.312C412.634 357.312 411.81 357.148 411.042 356.82C410.274 356.484 409.598 356.024 409.014 355.44C408.43 354.856 407.974 354.18 407.646 353.412C407.318 352.644 407.154 351.82 407.154 350.94C407.154 350.076 407.314 349.264 407.634 348.504C407.962 347.744 408.41 347.076 408.978 346.5C409.554 345.924 410.218 345.476 410.97 345.156C411.73 344.828 412.542 344.664 413.406 344.664C414.406 344.664 415.278 344.904 416.022 345.384C416.766 345.856 417.358 346.476 417.798 347.244L417.738 345ZM413.478 355.68C414.334 355.68 415.07 355.472 415.686 355.056C416.302 354.632 416.774 354.064 417.102 353.352C417.438 352.64 417.606 351.856 417.606 351C417.606 350.12 417.438 349.328 417.102 348.624C416.766 347.912 416.29 347.348 415.674 346.932C415.058 346.516 414.326 346.308 413.478 346.308C412.63 346.308 411.854 346.52 411.15 346.944C410.454 347.36 409.898 347.924 409.482 348.636C409.074 349.348 408.87 350.136 408.87 351C408.87 351.872 409.082 352.664 409.506 353.376C409.93 354.08 410.49 354.64 411.186 355.056C411.89 355.472 412.654 355.68 413.478 355.68ZM425.527 357.228C424.871 357.212 424.231 357.092 423.607 356.868C422.983 356.644 422.439 356.34 421.975 355.956C421.511 355.572 421.179 355.136 420.979 354.648L422.431 354.024C422.559 354.336 422.795 354.624 423.139 354.888C423.491 355.144 423.891 355.352 424.339 355.512C424.787 355.664 425.231 355.74 425.671 355.74C426.159 355.74 426.615 355.66 427.039 355.5C427.463 355.34 427.807 355.112 428.071 354.816C428.343 354.512 428.479 354.156 428.479 353.748C428.479 353.308 428.335 352.964 428.047 352.716C427.759 352.46 427.395 352.26 426.955 352.116C426.515 351.964 426.063 351.82 425.599 351.684C424.751 351.452 424.003 351.196 423.355 350.916C422.707 350.636 422.199 350.28 421.831 349.848C421.471 349.408 421.291 348.844 421.291 348.156C421.291 347.428 421.495 346.8 421.903 346.272C422.319 345.736 422.859 345.324 423.523 345.036C424.195 344.74 424.911 344.592 425.671 344.592C426.647 344.592 427.535 344.804 428.335 345.228C429.143 345.652 429.727 346.216 430.087 346.92L428.731 347.724C428.587 347.396 428.359 347.112 428.047 346.872C427.735 346.632 427.379 346.444 426.979 346.308C426.587 346.172 426.187 346.1 425.779 346.092C425.267 346.084 424.791 346.16 424.351 346.32C423.911 346.472 423.555 346.7 423.283 347.004C423.019 347.308 422.887 347.68 422.887 348.12C422.887 348.56 423.019 348.896 423.283 349.128C423.547 349.352 423.903 349.536 424.351 349.68C424.807 349.816 425.319 349.976 425.887 350.16C426.615 350.392 427.299 350.656 427.939 350.952C428.579 351.248 429.095 351.616 429.487 352.056C429.879 352.496 430.071 353.052 430.063 353.724C430.063 354.444 429.847 355.072 429.415 355.608C428.983 356.144 428.423 356.556 427.735 356.844C427.047 357.124 426.311 357.252 425.527 357.228ZM438.263 346.68H435.395L435.383 357H433.703L433.715 346.68H431.543V345H433.715L433.703 341.232H435.383L435.395 345H438.263V346.68ZM456.034 345H457.714V357H456.034L455.974 354.768C455.582 355.528 455.034 356.144 454.33 356.616C453.626 357.08 452.786 357.312 451.81 357.312C450.93 357.312 450.106 357.148 449.338 356.82C448.57 356.484 447.894 356.024 447.31 355.44C446.726 354.856 446.27 354.18 445.942 353.412C445.614 352.644 445.45 351.82 445.45 350.94C445.45 350.076 445.61 349.264 445.93 348.504C446.258 347.744 446.706 347.076 447.274 346.5C447.85 345.924 448.514 345.476 449.266 345.156C450.026 344.828 450.838 344.664 451.702 344.664C452.702 344.664 453.574 344.904 454.318 345.384C455.062 345.856 455.654 346.476 456.094 347.244L456.034 345ZM451.774 355.68C452.63 355.68 453.366 355.472 453.982 355.056C454.598 354.632 455.07 354.064 455.398 353.352C455.734 352.64 455.902 351.856 455.902 351C455.902 350.12 455.734 349.328 455.398 348.624C455.062 347.912 454.586 347.348 453.97 346.932C453.354 346.516 452.622 346.308 451.774 346.308C450.926 346.308 450.15 346.52 449.446 346.944C448.75 347.36 448.194 347.924 447.778 348.636C447.37 349.348 447.166 350.136 447.166 351C447.166 351.872 447.378 352.664 447.802 353.376C448.226 354.08 448.786 354.64 449.482 355.056C450.186 355.472 450.95 355.68 451.774 355.68ZM470.58 349.572V357H468.9V349.908C468.9 349.252 468.74 348.656 468.42 348.12C468.1 347.584 467.672 347.156 467.136 346.836C466.6 346.516 466.004 346.356 465.348 346.356C464.7 346.356 464.104 346.516 463.56 346.836C463.024 347.156 462.596 347.584 462.276 348.12C461.956 348.656 461.796 349.252 461.796 349.908V357H460.116V345H461.796V346.656C462.22 346.048 462.772 345.564 463.452 345.204C464.132 344.844 464.872 344.664 465.672 344.664C466.576 344.664 467.4 344.884 468.144 345.324C468.888 345.764 469.48 346.356 469.92 347.1C470.36 347.844 470.58 348.668 470.58 349.572ZM482.625 339H484.305V357H482.625V354.756C482.209 355.524 481.637 356.144 480.909 356.616C480.189 357.08 479.333 357.312 478.341 357.312C477.469 357.312 476.653 357.148 475.893 356.82C475.133 356.492 474.461 356.04 473.877 355.464C473.301 354.88 472.849 354.208 472.521 353.448C472.193 352.688 472.029 351.872 472.029 351C472.029 350.128 472.193 349.312 472.521 348.552C472.849 347.784 473.301 347.112 473.877 346.536C474.461 345.952 475.133 345.496 475.893 345.168C476.653 344.84 477.469 344.676 478.341 344.676C479.333 344.676 480.189 344.912 480.909 345.384C481.637 345.848 482.209 346.46 482.625 347.22V339ZM478.353 355.68C479.209 355.68 479.945 355.472 480.561 355.056C481.177 354.632 481.649 354.064 481.977 353.352C482.313 352.64 482.481 351.856 482.481 351C482.481 350.12 482.313 349.328 481.977 348.624C481.641 347.912 481.165 347.348 480.549 346.932C479.933 346.516 479.201 346.308 478.353 346.308C477.505 346.308 476.733 346.52 476.037 346.944C475.341 347.36 474.785 347.924 474.369 348.636C473.953 349.348 473.745 350.136 473.745 351C473.745 351.872 473.957 352.664 474.381 353.376C474.805 354.08 475.365 354.64 476.061 355.056C476.765 355.472 477.529 355.68 478.353 355.68ZM72.0158 381.988L73.5158 382.804C72.9718 383.564 72.2798 384.172 71.4398 384.628C70.6078 385.084 69.7038 385.312 68.7278 385.312C67.6238 385.312 66.6158 385.028 65.7038 384.46C64.7998 383.892 64.0758 383.132 63.5318 382.18C62.9958 381.22 62.7278 380.16 62.7278 379C62.7278 378.12 62.8838 377.3 63.1958 376.54C63.5078 375.772 63.9358 375.1 64.4798 374.524C65.0318 373.94 65.6718 373.484 66.3998 373.156C67.1278 372.828 67.9038 372.664 68.7278 372.664C69.7038 372.664 70.6078 372.892 71.4398 373.348C72.2798 373.804 72.9718 374.416 73.5158 375.184L72.0158 375.988C71.5998 375.46 71.0998 375.056 70.5158 374.776C69.9318 374.488 69.3358 374.344 68.7278 374.344C67.9198 374.344 67.1878 374.56 66.5318 374.992C65.8758 375.416 65.3558 375.98 64.9718 376.684C64.5958 377.388 64.4078 378.16 64.4078 379C64.4078 379.84 64.5998 380.612 64.9838 381.316C65.3758 382.02 65.8998 382.584 66.5558 383.008C67.2118 383.424 67.9358 383.632 68.7278 383.632C69.3838 383.632 69.9998 383.48 70.5758 383.176C71.1518 382.872 71.6318 382.476 72.0158 381.988ZM80.7981 385.312C79.6941 385.312 78.6861 385.028 77.7741 384.46C76.8701 383.892 76.1461 383.132 75.6021 382.18C75.0661 381.22 74.7981 380.16 74.7981 379C74.7981 378.12 74.9541 377.3 75.2661 376.54C75.5781 375.772 76.0061 375.1 76.5501 374.524C77.1021 373.94 77.7421 373.484 78.4701 373.156C79.1981 372.828 79.9741 372.664 80.7981 372.664C81.9021 372.664 82.9061 372.948 83.8101 373.516C84.7221 374.084 85.4461 374.848 85.9821 375.808C86.5261 376.768 86.7981 377.832 86.7981 379C86.7981 379.872 86.6421 380.688 86.3301 381.448C86.0181 382.208 85.5861 382.88 85.0341 383.464C84.4901 384.04 83.8541 384.492 83.1261 384.82C82.4061 385.148 81.6301 385.312 80.7981 385.312ZM80.7981 383.632C81.6141 383.632 82.3461 383.42 82.9941 382.996C83.6501 382.564 84.1661 381.996 84.5421 381.292C84.9261 380.588 85.1181 379.824 85.1181 379C85.1181 378.16 84.9261 377.388 84.5421 376.684C84.1581 375.972 83.6381 375.404 82.9821 374.98C82.3341 374.556 81.6061 374.344 80.7981 374.344C79.9821 374.344 79.2461 374.56 78.5901 374.992C77.9421 375.416 77.4261 375.98 77.0421 376.684C76.6661 377.388 76.4781 378.16 76.4781 379C76.4781 379.864 76.6741 380.648 77.0661 381.352C77.4581 382.048 77.9821 382.604 78.6381 383.02C79.2941 383.428 80.0141 383.632 80.7981 383.632ZM99.2946 377.572V385H97.6146V377.908C97.6146 377.252 97.4546 376.656 97.1346 376.12C96.8146 375.584 96.3866 375.156 95.8506 374.836C95.3146 374.516 94.7186 374.356 94.0626 374.356C93.4146 374.356 92.8186 374.516 92.2746 374.836C91.7386 375.156 91.3106 375.584 90.9906 376.12C90.6706 376.656 90.5106 377.252 90.5106 377.908V385H88.8306V373H90.5106V374.656C90.9346 374.048 91.4866 373.564 92.1666 373.204C92.8466 372.844 93.5866 372.664 94.3866 372.664C95.2906 372.664 96.1146 372.884 96.8586 373.324C97.6026 373.764 98.1946 374.356 98.6346 375.1C99.0746 375.844 99.2946 376.668 99.2946 377.572ZM107.259 385H105.123L100.743 372.964H102.531L106.191 383.032L109.851 372.964H111.639L107.259 385ZM118.439 385.312C117.335 385.312 116.327 385.028 115.415 384.46C114.511 383.892 113.787 383.132 113.243 382.18C112.707 381.22 112.439 380.16 112.439 379C112.439 378.12 112.595 377.3 112.907 376.54C113.219 375.772 113.647 375.1 114.191 374.524C114.743 373.94 115.383 373.484 116.111 373.156C116.839 372.828 117.615 372.664 118.439 372.664C119.327 372.664 120.143 372.84 120.887 373.192C121.639 373.544 122.283 374.036 122.819 374.668C123.363 375.3 123.771 376.04 124.043 376.888C124.323 377.736 124.439 378.652 124.391 379.636H114.215C114.311 380.396 114.551 381.076 114.935 381.676C115.327 382.276 115.823 382.752 116.423 383.104C117.031 383.448 117.703 383.624 118.439 383.632C119.239 383.632 119.959 383.424 120.599 383.008C121.247 382.592 121.767 382.02 122.159 381.292L123.863 381.688C123.383 382.752 122.659 383.624 121.691 384.304C120.723 384.976 119.639 385.312 118.439 385.312ZM114.167 378.28H122.699C122.643 377.536 122.415 376.856 122.015 376.24C121.623 375.616 121.115 375.12 120.491 374.752C119.867 374.376 119.183 374.188 118.439 374.188C117.695 374.188 117.015 374.372 116.399 374.74C115.783 375.1 115.279 375.592 114.887 376.216C114.495 376.832 114.255 377.52 114.167 378.28ZM136.912 377.572V385H135.232V377.908C135.232 377.252 135.072 376.656 134.752 376.12C134.432 375.584 134.004 375.156 133.468 374.836C132.932 374.516 132.336 374.356 131.68 374.356C131.032 374.356 130.436 374.516 129.892 374.836C129.356 375.156 128.928 375.584 128.608 376.12C128.288 376.656 128.128 377.252 128.128 377.908V385H126.448V373H128.128V374.656C128.552 374.048 129.104 373.564 129.784 373.204C130.464 372.844 131.204 372.664 132.004 372.664C132.908 372.664 133.732 372.884 134.476 373.324C135.22 373.764 135.812 374.356 136.252 375.1C136.692 375.844 136.912 376.668 136.912 377.572ZM139.315 373H140.995V385H139.315V373ZM140.167 370.9C139.895 370.9 139.663 370.812 139.471 370.636C139.287 370.452 139.195 370.224 139.195 369.952C139.195 369.68 139.287 369.456 139.471 369.28C139.663 369.096 139.895 369.004 140.167 369.004C140.431 369.004 140.655 369.096 140.839 369.28C141.031 369.456 141.127 369.68 141.127 369.952C141.127 370.224 141.035 370.452 140.851 370.636C140.667 370.812 140.439 370.9 140.167 370.9ZM149.048 385.312C147.944 385.312 146.936 385.028 146.024 384.46C145.12 383.892 144.396 383.132 143.852 382.18C143.316 381.22 143.048 380.16 143.048 379C143.048 378.12 143.204 377.3 143.516 376.54C143.828 375.772 144.256 375.1 144.8 374.524C145.352 373.94 145.992 373.484 146.72 373.156C147.448 372.828 148.224 372.664 149.048 372.664C149.936 372.664 150.752 372.84 151.496 373.192C152.248 373.544 152.892 374.036 153.428 374.668C153.972 375.3 154.38 376.04 154.652 376.888C154.932 377.736 155.048 378.652 155 379.636H144.824C144.92 380.396 145.16 381.076 145.544 381.676C145.936 382.276 146.432 382.752 147.032 383.104C147.64 383.448 148.312 383.624 149.048 383.632C149.848 383.632 150.568 383.424 151.208 383.008C151.856 382.592 152.376 382.02 152.768 381.292L154.472 381.688C153.992 382.752 153.268 383.624 152.3 384.304C151.332 384.976 150.248 385.312 149.048 385.312ZM144.776 378.28H153.308C153.252 377.536 153.024 376.856 152.624 376.24C152.232 375.616 151.724 375.12 151.1 374.752C150.476 374.376 149.792 374.188 149.048 374.188C148.304 374.188 147.624 374.372 147.008 374.74C146.392 375.1 145.888 375.592 145.496 376.216C145.104 376.832 144.864 377.52 144.776 378.28ZM167.521 377.572V385H165.841V377.908C165.841 377.252 165.681 376.656 165.361 376.12C165.041 375.584 164.613 375.156 164.077 374.836C163.541 374.516 162.945 374.356 162.289 374.356C161.641 374.356 161.045 374.516 160.501 374.836C159.965 375.156 159.537 375.584 159.217 376.12C158.897 376.656 158.737 377.252 158.737 377.908V385H157.057V373H158.737V374.656C159.161 374.048 159.713 373.564 160.393 373.204C161.073 372.844 161.813 372.664 162.613 372.664C163.517 372.664 164.341 372.884 165.085 373.324C165.829 373.764 166.421 374.356 166.861 375.1C167.301 375.844 167.521 376.668 167.521 377.572ZM176.056 374.68H173.188L173.176 385H171.496L171.508 374.68H169.336V373H171.508L171.496 369.232H173.176L173.188 373H176.056V374.68ZM177.483 386.344L178.227 382.288H179.907L178.599 386.344H177.483ZM188.917 385V368.2H190.597V385H188.917ZM199.596 385V373H201.276V374.656C201.7 374.048 202.252 373.564 202.932 373.204C203.612 372.844 204.352 372.664 205.152 372.664C205.616 372.664 206.064 372.724 206.496 372.844L205.812 374.512C205.476 374.408 205.148 374.356 204.828 374.356C204.18 374.356 203.584 374.516 203.04 374.836C202.504 375.156 202.076 375.584 201.756 376.12C201.436 376.656 201.276 377.252 201.276 377.908V385H199.596ZM212.658 385.312C211.554 385.312 210.546 385.028 209.634 384.46C208.73 383.892 208.006 383.132 207.462 382.18C206.926 381.22 206.658 380.16 206.658 379C206.658 378.12 206.814 377.3 207.126 376.54C207.438 375.772 207.866 375.1 208.41 374.524C208.962 373.94 209.602 373.484 210.33 373.156C211.058 372.828 211.834 372.664 212.658 372.664C213.546 372.664 214.362 372.84 215.106 373.192C215.858 373.544 216.502 374.036 217.038 374.668C217.582 375.3 217.99 376.04 218.262 376.888C218.542 377.736 218.658 378.652 218.609 379.636H208.434C208.53 380.396 208.77 381.076 209.154 381.676C209.546 382.276 210.042 382.752 210.642 383.104C211.25 383.448 211.922 383.624 212.658 383.632C213.458 383.632 214.178 383.424 214.818 383.008C215.466 382.592 215.986 382.02 216.378 381.292L218.082 381.688C217.602 382.752 216.878 383.624 215.91 384.304C214.942 384.976 213.858 385.312 212.658 385.312ZM208.386 378.28H216.918C216.862 377.536 216.634 376.856 216.234 376.24C215.842 375.616 215.334 375.12 214.71 374.752C214.086 374.376 213.402 374.188 212.658 374.188C211.914 374.188 211.234 374.372 210.618 374.74C210.002 375.1 209.498 375.592 209.105 376.216C208.714 376.832 208.474 377.52 208.386 378.28ZM229.117 381.988L230.617 382.804C230.073 383.564 229.381 384.172 228.541 384.628C227.709 385.084 226.805 385.312 225.829 385.312C224.725 385.312 223.717 385.028 222.805 384.46C221.901 383.892 221.177 383.132 220.633 382.18C220.097 381.22 219.829 380.16 219.829 379C219.829 378.12 219.985 377.3 220.297 376.54C220.609 375.772 221.037 375.1 221.581 374.524C222.133 373.94 222.773 373.484 223.501 373.156C224.229 372.828 225.005 372.664 225.829 372.664C226.805 372.664 227.709 372.892 228.541 373.348C229.381 373.804 230.073 374.416 230.617 375.184L229.117 375.988C228.701 375.46 228.201 375.056 227.617 374.776C227.033 374.488 226.437 374.344 225.829 374.344C225.021 374.344 224.289 374.56 223.633 374.992C222.977 375.416 222.457 375.98 222.073 376.684C221.697 377.388 221.509 378.16 221.509 379C221.509 379.84 221.701 380.612 222.085 381.316C222.477 382.02 223.001 382.584 223.657 383.008C224.313 383.424 225.037 383.632 225.829 383.632C226.485 383.632 227.101 383.48 227.677 383.176C228.253 382.872 228.733 382.476 229.117 381.988ZM237.9 385.312C236.796 385.312 235.788 385.028 234.876 384.46C233.972 383.892 233.248 383.132 232.704 382.18C232.168 381.22 231.9 380.16 231.9 379C231.9 378.12 232.056 377.3 232.368 376.54C232.68 375.772 233.108 375.1 233.652 374.524C234.204 373.94 234.844 373.484 235.572 373.156C236.3 372.828 237.076 372.664 237.9 372.664C238.788 372.664 239.604 372.84 240.348 373.192C241.1 373.544 241.744 374.036 242.28 374.668C242.824 375.3 243.232 376.04 243.504 376.888C243.784 377.736 243.9 378.652 243.852 379.636H233.676C233.772 380.396 234.012 381.076 234.396 381.676C234.788 382.276 235.284 382.752 235.884 383.104C236.492 383.448 237.164 383.624 237.9 383.632C238.7 383.632 239.42 383.424 240.06 383.008C240.708 382.592 241.228 382.02 241.62 381.292L243.324 381.688C242.844 382.752 242.12 383.624 241.152 384.304C240.184 384.976 239.1 385.312 237.9 385.312ZM233.628 378.28H242.16C242.104 377.536 241.876 376.856 241.476 376.24C241.084 375.616 240.576 375.12 239.952 374.752C239.328 374.376 238.644 374.188 237.9 374.188C237.156 374.188 236.476 374.372 235.86 374.74C235.244 375.1 234.74 375.592 234.348 376.216C233.956 376.832 233.716 377.52 233.628 378.28ZM245.792 373H247.472V385H245.792V373ZM246.644 370.9C246.372 370.9 246.14 370.812 245.948 370.636C245.764 370.452 245.672 370.224 245.672 369.952C245.672 369.68 245.764 369.456 245.948 369.28C246.14 369.096 246.372 369.004 246.644 369.004C246.908 369.004 247.132 369.096 247.316 369.28C247.508 369.456 247.604 369.68 247.604 369.952C247.604 370.224 247.512 370.452 247.328 370.636C247.144 370.812 246.916 370.9 246.644 370.9ZM255.994 385H253.858L249.478 372.964H251.266L254.926 383.032L258.586 372.964H260.374L255.994 385ZM267.173 385.312C266.069 385.312 265.061 385.028 264.149 384.46C263.245 383.892 262.521 383.132 261.977 382.18C261.441 381.22 261.173 380.16 261.173 379C261.173 378.12 261.329 377.3 261.641 376.54C261.953 375.772 262.381 375.1 262.925 374.524C263.477 373.94 264.117 373.484 264.845 373.156C265.573 372.828 266.349 372.664 267.173 372.664C268.061 372.664 268.877 372.84 269.621 373.192C270.373 373.544 271.017 374.036 271.553 374.668C272.097 375.3 272.505 376.04 272.777 376.888C273.057 377.736 273.173 378.652 273.125 379.636H262.949C263.045 380.396 263.285 381.076 263.669 381.676C264.061 382.276 264.557 382.752 265.157 383.104C265.765 383.448 266.437 383.624 267.173 383.632C267.973 383.632 268.693 383.424 269.333 383.008C269.981 382.592 270.501 382.02 270.893 381.292L272.597 381.688C272.117 382.752 271.393 383.624 270.425 384.304C269.457 384.976 268.373 385.312 267.173 385.312ZM262.901 378.28H271.433C271.377 377.536 271.149 376.856 270.749 376.24C270.357 375.616 269.849 375.12 269.225 374.752C268.601 374.376 267.917 374.188 267.173 374.188C266.429 374.188 265.749 374.372 265.133 374.74C264.517 375.1 264.013 375.592 263.621 376.216C263.229 376.832 262.989 377.52 262.901 378.28ZM284.941 367H286.621V385H284.941V382.756C284.525 383.524 283.953 384.144 283.225 384.616C282.505 385.08 281.649 385.312 280.657 385.312C279.785 385.312 278.969 385.148 278.209 384.82C277.449 384.492 276.777 384.04 276.193 383.464C275.617 382.88 275.165 382.208 274.837 381.448C274.509 380.688 274.345 379.872 274.345 379C274.345 378.128 274.509 377.312 274.837 376.552C275.165 375.784 275.617 375.112 276.193 374.536C276.777 373.952 277.449 373.496 278.209 373.168C278.969 372.84 279.785 372.676 280.657 372.676C281.649 372.676 282.505 372.912 283.225 373.384C283.953 373.848 284.525 374.46 284.941 375.22V367ZM280.669 383.68C281.525 383.68 282.261 383.472 282.877 383.056C283.493 382.632 283.965 382.064 284.293 381.352C284.629 380.64 284.797 379.856 284.797 379C284.797 378.12 284.629 377.328 284.293 376.624C283.957 375.912 283.481 375.348 282.865 374.932C282.249 374.516 281.517 374.308 280.669 374.308C279.821 374.308 279.049 374.52 278.353 374.944C277.657 375.36 277.101 375.924 276.685 376.636C276.269 377.348 276.061 378.136 276.061 379C276.061 379.872 276.273 380.664 276.697 381.376C277.121 382.08 277.681 382.64 278.377 383.056C279.081 383.472 279.845 383.68 280.669 383.68ZM301.4 374.68H298.532L298.52 385H296.84L296.852 374.68H294.68V373H296.852L296.84 369.232H298.52L298.532 373H301.4V374.68ZM314.006 377.572V385H312.326V377.908C312.326 377.252 312.166 376.656 311.846 376.12C311.526 375.584 311.098 375.156 310.562 374.836C310.026 374.516 309.43 374.356 308.774 374.356C308.126 374.356 307.53 374.516 306.986 374.836C306.45 375.156 306.022 375.584 305.702 376.12C305.382 376.656 305.222 377.252 305.222 377.908V385H303.542V367H305.222V374.656C305.646 374.048 306.198 373.564 306.878 373.204C307.558 372.844 308.298 372.664 309.098 372.664C310.002 372.664 310.826 372.884 311.57 373.324C312.314 373.764 312.906 374.356 313.346 375.1C313.786 375.844 314.006 376.668 314.006 377.572ZM321.454 385.312C320.35 385.312 319.342 385.028 318.43 384.46C317.526 383.892 316.802 383.132 316.258 382.18C315.722 381.22 315.454 380.16 315.454 379C315.454 378.12 315.61 377.3 315.922 376.54C316.234 375.772 316.662 375.1 317.206 374.524C317.758 373.94 318.398 373.484 319.126 373.156C319.854 372.828 320.63 372.664 321.454 372.664C322.342 372.664 323.158 372.84 323.902 373.192C324.654 373.544 325.298 374.036 325.834 374.668C326.378 375.3 326.786 376.04 327.058 376.888C327.338 377.736 327.454 378.652 327.406 379.636H317.23C317.326 380.396 317.566 381.076 317.95 381.676C318.342 382.276 318.838 382.752 319.438 383.104C320.046 383.448 320.718 383.624 321.454 383.632C322.254 383.632 322.974 383.424 323.614 383.008C324.262 382.592 324.782 382.02 325.174 381.292L326.878 381.688C326.398 382.752 325.674 383.624 324.706 384.304C323.738 384.976 322.654 385.312 321.454 385.312ZM317.182 378.28H325.714C325.658 377.536 325.43 376.856 325.03 376.24C324.638 375.616 324.13 375.12 323.506 374.752C322.882 374.376 322.198 374.188 321.454 374.188C320.71 374.188 320.03 374.372 319.414 374.74C318.798 375.1 318.294 375.592 317.902 376.216C317.51 376.832 317.27 377.52 317.182 378.28ZM335.346 385V373H337.026V374.656C337.458 374.048 338.01 373.564 338.682 373.204C339.354 372.844 340.09 372.664 340.89 372.664C341.794 372.664 342.622 372.888 343.374 373.336C344.126 373.776 344.714 374.364 345.138 375.1C345.562 374.364 346.146 373.776 346.89 373.336C347.634 372.888 348.458 372.664 349.362 372.664C350.266 372.664 351.09 372.884 351.834 373.324C352.578 373.764 353.17 374.356 353.61 375.1C354.05 375.844 354.27 376.668 354.27 377.572V385H352.59V377.944C352.59 377.304 352.434 376.712 352.122 376.168C351.81 375.624 351.39 375.188 350.862 374.86C350.342 374.524 349.762 374.356 349.122 374.356C348.482 374.356 347.898 374.512 347.37 374.824C346.85 375.128 346.434 375.552 346.122 376.096C345.81 376.632 345.654 377.248 345.654 377.944V385H343.974V377.944C343.974 377.248 343.818 376.632 343.506 376.096C343.194 375.552 342.774 375.128 342.246 374.824C341.718 374.512 341.134 374.356 340.494 374.356C339.862 374.356 339.282 374.524 338.754 374.86C338.226 375.188 337.806 375.624 337.494 376.168C337.182 376.712 337.026 377.304 337.026 377.944V385H335.346ZM361.72 385.312C360.616 385.312 359.608 385.028 358.696 384.46C357.792 383.892 357.068 383.132 356.524 382.18C355.988 381.22 355.72 380.16 355.72 379C355.72 378.12 355.876 377.3 356.188 376.54C356.5 375.772 356.928 375.1 357.472 374.524C358.024 373.94 358.664 373.484 359.392 373.156C360.12 372.828 360.896 372.664 361.72 372.664C362.824 372.664 363.828 372.948 364.732 373.516C365.644 374.084 366.368 374.848 366.904 375.808C367.448 376.768 367.72 377.832 367.72 379C367.72 379.872 367.564 380.688 367.252 381.448C366.94 382.208 366.508 382.88 365.956 383.464C365.412 384.04 364.776 384.492 364.048 384.82C363.328 385.148 362.552 385.312 361.72 385.312ZM361.72 383.632C362.536 383.632 363.268 383.42 363.916 382.996C364.572 382.564 365.088 381.996 365.464 381.292C365.848 380.588 366.04 379.824 366.04 379C366.04 378.16 365.848 377.388 365.464 376.684C365.08 375.972 364.56 375.404 363.904 374.98C363.256 374.556 362.528 374.344 361.72 374.344C360.904 374.344 360.168 374.56 359.512 374.992C358.864 375.416 358.348 375.98 357.964 376.684C357.588 377.388 357.4 378.16 357.4 379C357.4 379.864 357.596 380.648 357.988 381.352C358.38 382.048 358.904 382.604 359.56 383.02C360.216 383.428 360.936 383.632 361.72 383.632ZM380.217 377.572V385H378.537V377.908C378.537 377.252 378.377 376.656 378.057 376.12C377.737 375.584 377.309 375.156 376.773 374.836C376.237 374.516 375.641 374.356 374.985 374.356C374.337 374.356 373.741 374.516 373.197 374.836C372.661 375.156 372.233 375.584 371.913 376.12C371.593 376.656 371.433 377.252 371.433 377.908V385H369.753V373H371.433V374.656C371.857 374.048 372.409 373.564 373.089 373.204C373.769 372.844 374.509 372.664 375.309 372.664C376.213 372.664 377.037 372.884 377.781 373.324C378.525 373.764 379.117 374.356 379.557 375.1C379.997 375.844 380.217 376.668 380.217 377.572ZM387.665 385.312C386.561 385.312 385.553 385.028 384.641 384.46C383.737 383.892 383.013 383.132 382.469 382.18C381.933 381.22 381.665 380.16 381.665 379C381.665 378.12 381.821 377.3 382.133 376.54C382.445 375.772 382.873 375.1 383.417 374.524C383.969 373.94 384.609 373.484 385.337 373.156C386.065 372.828 386.841 372.664 387.665 372.664C388.553 372.664 389.369 372.84 390.113 373.192C390.865 373.544 391.509 374.036 392.045 374.668C392.589 375.3 392.997 376.04 393.269 376.888C393.549 377.736 393.665 378.652 393.617 379.636H383.441C383.537 380.396 383.777 381.076 384.161 381.676C384.553 382.276 385.049 382.752 385.649 383.104C386.257 383.448 386.929 383.624 387.665 383.632C388.465 383.632 389.185 383.424 389.825 383.008C390.473 382.592 390.993 382.02 391.385 381.292L393.089 381.688C392.609 382.752 391.885 383.624 390.917 384.304C389.949 384.976 388.865 385.312 387.665 385.312ZM383.393 378.28H391.925C391.869 377.536 391.641 376.856 391.241 376.24C390.849 375.616 390.341 375.12 389.717 374.752C389.093 374.376 388.409 374.188 387.665 374.188C386.921 374.188 386.241 374.372 385.625 374.74C385.009 375.1 384.505 375.592 384.113 376.216C383.721 376.832 383.481 377.52 383.393 378.28ZM403.285 373H405.061L398.497 391H396.709L398.893 385L394.585 373H396.421L399.733 382.684L403.285 373ZM419.361 374.68H416.493L416.481 385H414.801L414.813 374.68H412.641V373H414.813L414.801 369.232H416.481L416.493 373H419.361V374.68ZM431.967 377.572V385H430.287V377.908C430.287 377.252 430.127 376.656 429.807 376.12C429.487 375.584 429.059 375.156 428.523 374.836C427.987 374.516 427.391 374.356 426.735 374.356C426.087 374.356 425.491 374.516 424.947 374.836C424.411 375.156 423.983 375.584 423.663 376.12C423.343 376.656 423.183 377.252 423.183 377.908V385H421.503V367H423.183V374.656C423.607 374.048 424.159 373.564 424.839 373.204C425.519 372.844 426.259 372.664 427.059 372.664C427.963 372.664 428.787 372.884 429.531 373.324C430.275 373.764 430.867 374.356 431.307 375.1C431.747 375.844 431.967 376.668 431.967 377.572ZM439.415 385.312C438.311 385.312 437.303 385.028 436.391 384.46C435.487 383.892 434.763 383.132 434.219 382.18C433.683 381.22 433.415 380.16 433.415 379C433.415 378.12 433.571 377.3 433.883 376.54C434.195 375.772 434.623 375.1 435.167 374.524C435.719 373.94 436.359 373.484 437.087 373.156C437.815 372.828 438.591 372.664 439.415 372.664C440.303 372.664 441.119 372.84 441.863 373.192C442.615 373.544 443.259 374.036 443.795 374.668C444.339 375.3 444.747 376.04 445.019 376.888C445.299 377.736 445.415 378.652 445.367 379.636H435.191C435.287 380.396 435.527 381.076 435.911 381.676C436.303 382.276 436.799 382.752 437.399 383.104C438.007 383.448 438.679 383.624 439.415 383.632C440.215 383.632 440.935 383.424 441.575 383.008C442.223 382.592 442.743 382.02 443.135 381.292L444.839 381.688C444.359 382.752 443.635 383.624 442.667 384.304C441.699 384.976 440.615 385.312 439.415 385.312ZM435.143 378.28H443.675C443.619 377.536 443.391 376.856 442.991 376.24C442.599 375.616 442.091 375.12 441.467 374.752C440.843 374.376 440.159 374.188 439.415 374.188C438.671 374.188 437.991 374.372 437.375 374.74C436.759 375.1 436.255 375.592 435.863 376.216C435.471 376.832 435.231 377.52 435.143 378.28ZM463.771 377.572V385H462.091V377.908C462.091 377.252 461.931 376.656 461.611 376.12C461.291 375.584 460.863 375.156 460.327 374.836C459.791 374.516 459.195 374.356 458.539 374.356C457.891 374.356 457.295 374.516 456.751 374.836C456.215 375.156 455.787 375.584 455.467 376.12C455.147 376.656 454.987 377.252 454.987 377.908V385H453.307V373H454.987V374.656C455.411 374.048 455.963 373.564 456.643 373.204C457.323 372.844 458.063 372.664 458.863 372.664C459.767 372.664 460.591 372.884 461.335 373.324C462.079 373.764 462.671 374.356 463.111 375.1C463.551 375.844 463.771 376.668 463.771 377.572ZM471.22 385.312C470.116 385.312 469.108 385.028 468.196 384.46C467.292 383.892 466.568 383.132 466.024 382.18C465.488 381.22 465.22 380.16 465.22 379C465.22 378.12 465.376 377.3 465.688 376.54C466 375.772 466.428 375.1 466.972 374.524C467.524 373.94 468.164 373.484 468.892 373.156C469.62 372.828 470.396 372.664 471.22 372.664C472.108 372.664 472.924 372.84 473.668 373.192C474.42 373.544 475.064 374.036 475.6 374.668C476.144 375.3 476.552 376.04 476.824 376.888C477.104 377.736 477.22 378.652 477.172 379.636H466.996C467.092 380.396 467.332 381.076 467.716 381.676C468.108 382.276 468.604 382.752 469.204 383.104C469.812 383.448 470.484 383.624 471.22 383.632C472.02 383.632 472.74 383.424 473.38 383.008C474.028 382.592 474.548 382.02 474.94 381.292L476.644 381.688C476.164 382.752 475.44 383.624 474.472 384.304C473.504 384.976 472.42 385.312 471.22 385.312ZM466.948 378.28H475.48C475.424 377.536 475.196 376.856 474.796 376.24C474.404 375.616 473.896 375.12 473.272 374.752C472.648 374.376 471.964 374.188 471.22 374.188C470.476 374.188 469.796 374.372 469.18 374.74C468.564 375.1 468.06 375.592 467.668 376.216C467.276 376.832 467.036 377.52 466.948 378.28ZM477.905 385L482.297 378.976L477.917 372.964H479.993L483.341 377.536L486.677 372.964H488.741L484.373 378.976L488.765 385H486.689L483.341 380.392L479.981 385H477.905ZM497.291 374.68H494.423L494.411 385H492.731L492.743 374.68H490.571V373H492.743L492.731 369.232H494.411L494.423 373H497.291V374.68ZM190.64 395H192.32V413H190.64V410.756C190.224 411.524 189.652 412.144 188.924 412.616C188.204 413.08 187.348 413.312 186.356 413.312C185.484 413.312 184.668 413.148 183.908 412.82C183.148 412.492 182.476 412.04 181.892 411.464C181.316 410.88 180.864 410.208 180.536 409.448C180.208 408.688 180.044 407.872 180.044 407C180.044 406.128 180.208 405.312 180.536 404.552C180.864 403.784 181.316 403.112 181.892 402.536C182.476 401.952 183.148 401.496 183.908 401.168C184.668 400.84 185.484 400.676 186.356 400.676C187.348 400.676 188.204 400.912 188.924 401.384C189.652 401.848 190.224 402.46 190.64 403.22V395ZM186.368 411.68C187.224 411.68 187.96 411.472 188.576 411.056C189.192 410.632 189.664 410.064 189.992 409.352C190.328 408.64 190.496 407.856 190.496 407C190.496 406.12 190.328 405.328 189.992 404.624C189.656 403.912 189.18 403.348 188.564 402.932C187.948 402.516 187.216 402.308 186.368 402.308C185.52 402.308 184.748 402.52 184.052 402.944C183.356 403.36 182.8 403.924 182.384 404.636C181.968 405.348 181.76 406.136 181.76 407C181.76 407.872 181.972 408.664 182.396 409.376C182.82 410.08 183.38 410.64 184.076 411.056C184.78 411.472 185.544 411.68 186.368 411.68ZM204.972 401H206.652V413H204.972L204.912 410.768C204.52 411.528 203.972 412.144 203.268 412.616C202.564 413.08 201.724 413.312 200.748 413.312C199.868 413.312 199.044 413.148 198.276 412.82C197.508 412.484 196.832 412.024 196.248 411.44C195.664 410.856 195.208 410.18 194.88 409.412C194.552 408.644 194.388 407.82 194.388 406.94C194.388 406.076 194.548 405.264 194.868 404.504C195.196 403.744 195.644 403.076 196.212 402.5C196.788 401.924 197.452 401.476 198.204 401.156C198.964 400.828 199.776 400.664 200.64 400.664C201.64 400.664 202.512 400.904 203.256 401.384C204 401.856 204.592 402.476 205.032 403.244L204.972 401ZM200.712 411.68C201.568 411.68 202.304 411.472 202.92 411.056C203.536 410.632 204.008 410.064 204.336 409.352C204.672 408.64 204.84 407.856 204.84 407C204.84 406.12 204.672 405.328 204.336 404.624C204 403.912 203.524 403.348 202.908 402.932C202.292 402.516 201.56 402.308 200.712 402.308C199.864 402.308 199.088 402.52 198.384 402.944C197.688 403.36 197.132 403.924 196.716 404.636C196.308 405.348 196.104 406.136 196.104 407C196.104 407.872 196.316 408.664 196.74 409.376C197.164 410.08 197.724 410.64 198.42 411.056C199.124 411.472 199.888 411.68 200.712 411.68ZM216.992 401H218.768L212.204 419H210.416L212.6 413L208.292 401H210.128L213.44 410.684L216.992 401ZM220.795 413.312C220.531 413.312 220.307 413.216 220.123 413.024C219.939 412.84 219.847 412.612 219.847 412.34C219.847 412.084 219.939 411.864 220.123 411.68C220.307 411.488 220.531 411.392 220.795 411.392C221.067 411.392 221.295 411.488 221.479 411.68C221.671 411.864 221.767 412.084 221.767 412.34C221.767 412.612 221.671 412.84 221.479 413.024C221.295 413.216 221.067 413.312 220.795 413.312ZM235.625 413L229.529 396.2H231.305L236.633 410.888L241.985 396.2H243.761L237.653 413H235.625ZM249.865 413.312C248.761 413.312 247.753 413.028 246.841 412.46C245.937 411.892 245.213 411.132 244.669 410.18C244.133 409.22 243.865 408.16 243.865 407C243.865 406.12 244.021 405.3 244.333 404.54C244.645 403.772 245.073 403.1 245.617 402.524C246.169 401.94 246.809 401.484 247.537 401.156C248.265 400.828 249.041 400.664 249.865 400.664C250.753 400.664 251.569 400.84 252.313 401.192C253.065 401.544 253.709 402.036 254.245 402.668C254.789 403.3 255.197 404.04 255.469 404.888C255.749 405.736 255.865 406.652 255.817 407.636H245.641C245.737 408.396 245.977 409.076 246.361 409.676C246.753 410.276 247.249 410.752 247.849 411.104C248.457 411.448 249.129 411.624 249.865 411.632C250.665 411.632 251.385 411.424 252.025 411.008C252.673 410.592 253.193 410.02 253.585 409.292L255.289 409.688C254.809 410.752 254.085 411.624 253.117 412.304C252.149 412.976 251.065 413.312 249.865 413.312ZM245.593 406.28H254.125C254.069 405.536 253.841 404.856 253.441 404.24C253.049 403.616 252.541 403.12 251.917 402.752C251.293 402.376 250.609 402.188 249.865 402.188C249.121 402.188 248.441 402.372 247.825 402.74C247.209 403.1 246.705 403.592 246.313 404.216C245.921 404.832 245.681 405.52 245.593 406.28ZM257.874 413V401H259.554V402.656C259.978 402.048 260.53 401.564 261.21 401.204C261.89 400.844 262.63 400.664 263.43 400.664C263.894 400.664 264.342 400.724 264.774 400.844L264.09 402.512C263.754 402.408 263.426 402.356 263.106 402.356C262.458 402.356 261.862 402.516 261.318 402.836C260.782 403.156 260.354 403.584 260.034 404.12C259.714 404.656 259.554 405.252 259.554 405.908V413H257.874ZM274.508 401H276.284L269.72 419H267.932L270.116 413L265.808 401H267.644L270.956 410.684L274.508 401ZM288.16 413.228C287.504 413.212 286.864 413.092 286.24 412.868C285.616 412.644 285.072 412.34 284.608 411.956C284.144 411.572 283.812 411.136 283.612 410.648L285.064 410.024C285.192 410.336 285.428 410.624 285.772 410.888C286.124 411.144 286.524 411.352 286.972 411.512C287.42 411.664 287.864 411.74 288.304 411.74C288.792 411.74 289.248 411.66 289.672 411.5C290.096 411.34 290.44 411.112 290.704 410.816C290.976 410.512 291.112 410.156 291.112 409.748C291.112 409.308 290.968 408.964 290.68 408.716C290.392 408.46 290.028 408.26 289.588 408.116C289.148 407.964 288.696 407.82 288.232 407.684C287.384 407.452 286.636 407.196 285.988 406.916C285.34 406.636 284.832 406.28 284.464 405.848C284.104 405.408 283.924 404.844 283.924 404.156C283.924 403.428 284.128 402.8 284.536 402.272C284.952 401.736 285.492 401.324 286.156 401.036C286.828 400.74 287.544 400.592 288.304 400.592C289.28 400.592 290.168 400.804 290.968 401.228C291.776 401.652 292.36 402.216 292.72 402.92L291.364 403.724C291.22 403.396 290.992 403.112 290.68 402.872C290.368 402.632 290.012 402.444 289.612 402.308C289.22 402.172 288.82 402.1 288.412 402.092C287.9 402.084 287.424 402.16 286.984 402.32C286.544 402.472 286.188 402.7 285.916 403.004C285.652 403.308 285.52 403.68 285.52 404.12C285.52 404.56 285.652 404.896 285.916 405.128C286.18 405.352 286.536 405.536 286.984 405.68C287.44 405.816 287.952 405.976 288.52 406.16C289.248 406.392 289.932 406.656 290.572 406.952C291.212 407.248 291.728 407.616 292.12 408.056C292.512 408.496 292.704 409.052 292.696 409.724C292.696 410.444 292.48 411.072 292.048 411.608C291.616 412.144 291.056 412.556 290.368 412.844C289.68 413.124 288.944 413.252 288.16 413.228ZM304.534 401H306.214V413H304.534L304.474 410.768C304.082 411.528 303.534 412.144 302.83 412.616C302.126 413.08 301.286 413.312 300.31 413.312C299.43 413.312 298.606 413.148 297.838 412.82C297.07 412.484 296.394 412.024 295.81 411.44C295.226 410.856 294.77 410.18 294.442 409.412C294.114 408.644 293.95 407.82 293.95 406.94C293.95 406.076 294.11 405.264 294.43 404.504C294.758 403.744 295.206 403.076 295.774 402.5C296.35 401.924 297.014 401.476 297.766 401.156C298.526 400.828 299.338 400.664 300.202 400.664C301.202 400.664 302.074 400.904 302.818 401.384C303.562 401.856 304.154 402.476 304.594 403.244L304.534 401ZM300.274 411.68C301.13 411.68 301.866 411.472 302.482 411.056C303.098 410.632 303.57 410.064 303.898 409.352C304.234 408.64 304.402 407.856 304.402 407C304.402 406.12 304.234 405.328 303.898 404.624C303.562 403.912 303.086 403.348 302.47 402.932C301.854 402.516 301.122 402.308 300.274 402.308C299.426 402.308 298.65 402.52 297.946 402.944C297.25 403.36 296.694 403.924 296.278 404.636C295.87 405.348 295.666 406.136 295.666 407C295.666 407.872 295.878 408.664 296.302 409.376C296.726 410.08 297.286 410.64 297.982 411.056C298.686 411.472 299.45 411.68 300.274 411.68ZM314.748 402.68H311.88L311.868 413H310.188L310.2 402.68H308.028V401H310.2L310.188 397.232H311.868L311.88 401H314.748V402.68ZM316.795 401H318.475V413H316.795V401ZM317.647 398.9C317.375 398.9 317.143 398.812 316.951 398.636C316.767 398.452 316.675 398.224 316.675 397.952C316.675 397.68 316.767 397.456 316.951 397.28C317.143 397.096 317.375 397.004 317.647 397.004C317.911 397.004 318.135 397.096 318.319 397.28C318.511 397.456 318.607 397.68 318.607 397.952C318.607 398.224 318.515 398.452 318.331 398.636C318.147 398.812 317.919 398.9 317.647 398.9ZM324.98 413.228C324.324 413.212 323.684 413.092 323.06 412.868C322.436 412.644 321.892 412.34 321.428 411.956C320.964 411.572 320.632 411.136 320.432 410.648L321.884 410.024C322.012 410.336 322.248 410.624 322.592 410.888C322.944 411.144 323.344 411.352 323.792 411.512C324.24 411.664 324.684 411.74 325.124 411.74C325.612 411.74 326.068 411.66 326.492 411.5C326.916 411.34 327.26 411.112 327.524 410.816C327.796 410.512 327.932 410.156 327.932 409.748C327.932 409.308 327.788 408.964 327.5 408.716C327.212 408.46 326.848 408.26 326.408 408.116C325.968 407.964 325.516 407.82 325.052 407.684C324.204 407.452 323.456 407.196 322.808 406.916C322.16 406.636 321.652 406.28 321.284 405.848C320.924 405.408 320.744 404.844 320.744 404.156C320.744 403.428 320.948 402.8 321.356 402.272C321.772 401.736 322.312 401.324 322.976 401.036C323.648 400.74 324.364 400.592 325.124 400.592C326.1 400.592 326.988 400.804 327.788 401.228C328.596 401.652 329.18 402.216 329.54 402.92L328.184 403.724C328.04 403.396 327.812 403.112 327.5 402.872C327.188 402.632 326.832 402.444 326.432 402.308C326.04 402.172 325.64 402.1 325.232 402.092C324.72 402.084 324.244 402.16 323.804 402.32C323.364 402.472 323.008 402.7 322.736 403.004C322.472 403.308 322.34 403.68 322.34 404.12C322.34 404.56 322.472 404.896 322.736 405.128C323 405.352 323.356 405.536 323.804 405.68C324.26 405.816 324.772 405.976 325.34 406.16C326.068 406.392 326.752 406.656 327.392 406.952C328.032 407.248 328.548 407.616 328.94 408.056C329.332 408.496 329.524 409.052 329.516 409.724C329.516 410.444 329.3 411.072 328.868 411.608C328.436 412.144 327.876 412.556 327.188 412.844C326.5 413.124 325.764 413.252 324.98 413.228ZM334.069 397.868V401H337.669V402.68H334.069V413H332.389V402.68H330.745V401H332.389V397.868C332.389 397.284 332.529 396.756 332.809 396.284C333.097 395.804 333.481 395.424 333.961 395.144C334.441 394.856 334.973 394.712 335.557 394.712C335.981 394.712 336.389 394.796 336.781 394.964C337.181 395.132 337.537 395.38 337.849 395.708L336.649 396.896C336.521 396.736 336.357 396.612 336.157 396.524C335.965 396.436 335.765 396.392 335.557 396.392C335.149 396.392 334.797 396.536 334.501 396.824C334.213 397.112 334.069 397.46 334.069 397.868ZM339.506 401H341.186V413H339.506V401ZM340.358 398.9C340.086 398.9 339.854 398.812 339.662 398.636C339.478 398.452 339.386 398.224 339.386 397.952C339.386 397.68 339.478 397.456 339.662 397.28C339.854 397.096 340.086 397.004 340.358 397.004C340.622 397.004 340.846 397.096 341.03 397.28C341.222 397.456 341.318 397.68 341.318 397.952C341.318 398.224 341.226 398.452 341.042 398.636C340.858 398.812 340.63 398.9 340.358 398.9ZM349.24 413.312C348.136 413.312 347.128 413.028 346.216 412.46C345.312 411.892 344.588 411.132 344.044 410.18C343.508 409.22 343.24 408.16 343.24 407C343.24 406.12 343.396 405.3 343.708 404.54C344.02 403.772 344.448 403.1 344.992 402.524C345.544 401.94 346.184 401.484 346.912 401.156C347.64 400.828 348.416 400.664 349.24 400.664C350.128 400.664 350.944 400.84 351.688 401.192C352.44 401.544 353.084 402.036 353.62 402.668C354.164 403.3 354.572 404.04 354.844 404.888C355.124 405.736 355.24 406.652 355.192 407.636H345.016C345.112 408.396 345.352 409.076 345.736 409.676C346.128 410.276 346.624 410.752 347.224 411.104C347.832 411.448 348.504 411.624 349.24 411.632C350.04 411.632 350.76 411.424 351.4 411.008C352.048 410.592 352.568 410.02 352.96 409.292L354.664 409.688C354.184 410.752 353.46 411.624 352.492 412.304C351.524 412.976 350.44 413.312 349.24 413.312ZM344.968 406.28H353.5C353.444 405.536 353.216 404.856 352.816 404.24C352.424 403.616 351.916 403.12 351.292 402.752C350.668 402.376 349.984 402.188 349.24 402.188C348.496 402.188 347.816 402.372 347.2 402.74C346.584 403.1 346.08 403.592 345.688 404.216C345.296 404.832 345.056 405.52 344.968 406.28ZM367.007 395H368.687V413H367.007V410.756C366.591 411.524 366.019 412.144 365.291 412.616C364.571 413.08 363.715 413.312 362.723 413.312C361.851 413.312 361.035 413.148 360.275 412.82C359.515 412.492 358.843 412.04 358.259 411.464C357.683 410.88 357.231 410.208 356.903 409.448C356.575 408.688 356.411 407.872 356.411 407C356.411 406.128 356.575 405.312 356.903 404.552C357.231 403.784 357.683 403.112 358.259 402.536C358.843 401.952 359.515 401.496 360.275 401.168C361.035 400.84 361.851 400.676 362.723 400.676C363.715 400.676 364.571 400.912 365.291 401.384C366.019 401.848 366.591 402.46 367.007 403.22V395ZM362.735 411.68C363.591 411.68 364.327 411.472 364.943 411.056C365.559 410.632 366.031 410.064 366.359 409.352C366.695 408.64 366.863 407.856 366.863 407C366.863 406.12 366.695 405.328 366.359 404.624C366.023 403.912 365.547 403.348 364.931 402.932C364.315 402.516 363.583 402.308 362.735 402.308C361.887 402.308 361.115 402.52 360.419 402.944C359.723 403.36 359.167 403.924 358.751 404.636C358.335 405.348 358.127 406.136 358.127 407C358.127 407.872 358.339 408.664 358.763 409.376C359.187 410.08 359.747 410.64 360.443 411.056C361.147 411.472 361.911 411.68 362.735 411.68ZM371.317 407.96V396.2H372.793V407.96H371.317ZM372.061 413.312C371.789 413.312 371.557 413.216 371.365 413.024C371.181 412.84 371.089 412.612 371.089 412.34C371.089 412.076 371.181 411.852 371.365 411.668C371.557 411.484 371.789 411.392 372.061 411.392C372.317 411.392 372.537 411.484 372.721 411.668C372.905 411.852 372.997 412.076 372.997 412.34C372.997 412.612 372.905 412.84 372.721 413.024C372.537 413.216 372.317 413.312 372.061 413.312ZM375.317 402.464V396.2H376.601V402.464H375.317ZM378.509 402.464V396.2H379.793V402.464H378.509Z" fill="#1D1D1D"/>
<path d="M247.041 268V247H259.926V249.52H249.561V255.49H258.051V258.01H249.561V265.48H259.926V268H247.041ZM263.213 268V253H265.733V254.875C266.263 254.175 266.928 253.62 267.728 253.21C268.538 252.79 269.418 252.58 270.368 252.58C271.478 252.58 272.493 252.85 273.413 253.39C274.333 253.93 275.058 254.645 275.588 255.535C276.118 254.645 276.838 253.93 277.748 253.39C278.668 252.85 279.678 252.58 280.778 252.58C281.908 252.58 282.933 252.855 283.853 253.405C284.773 253.945 285.503 254.675 286.043 255.595C286.593 256.515 286.868 257.54 286.868 258.67V268H284.348V259.27C284.348 258.53 284.168 257.845 283.808 257.215C283.448 256.585 282.963 256.08 282.353 255.7C281.743 255.32 281.068 255.13 280.328 255.13C279.588 255.13 278.913 255.31 278.303 255.67C277.693 256.02 277.208 256.51 276.848 257.14C276.488 257.76 276.308 258.47 276.308 259.27V268H273.788V259.27C273.788 258.47 273.608 257.76 273.248 257.14C272.888 256.51 272.398 256.02 271.778 255.67C271.168 255.31 270.493 255.13 269.753 255.13C269.023 255.13 268.348 255.32 267.728 255.7C267.118 256.08 266.633 256.585 266.273 257.215C265.913 257.845 265.733 258.53 265.733 259.27V268H263.213ZM289.873 253H292.393V268H289.873V253ZM291.163 250.555C290.763 250.555 290.428 250.425 290.158 250.165C289.888 249.905 289.753 249.58 289.753 249.19C289.753 248.8 289.888 248.475 290.158 248.215C290.428 247.955 290.758 247.825 291.148 247.825C291.538 247.825 291.868 247.955 292.138 248.215C292.408 248.475 292.543 248.8 292.543 249.19C292.543 249.58 292.408 249.905 292.138 250.165C291.878 250.425 291.553 250.555 291.163 250.555ZM296.084 268V245.5H298.604V268H296.084ZM311.896 253H314.566L306.361 275.5H303.691L306.406 268L301.021 253H303.781L307.666 264.535L311.896 253Z" fill="#1D1D1D"/>
<circle cx="279.5" cy="109.5" r="99" fill="#DAF4FF" stroke="white" stroke-width="21"/>
<circle cx="279.5" cy="109.5" r="88.5" fill="white"/>
<path d="M292 113C292 110.664 292.347 107.652 294 106C295.653 104.348 298.663 104 301 104C303.337 104 305.347 104.348 307 106C308.653 107.652 309 110.664 309 113C309 115.336 308.653 117.348 307 119C305.347 120.652 303.337 121 301 121C298.663 121 295.653 120.652 294 119C292.347 117.348 292 115.336 292 113ZM350 105L342 170H217L209 105C209 66.2469 241.225 35 280 35C318.775 35 350 66.2469 350 105ZM223 105C223 136.073 248.91 162 280 162C311.09 162 336 136.073 336 105C336 99.4336 335.48 95.0027 334 90C320.371 93.1644 306.074 91.9831 293 87C279.926 82.0169 268.06 73.4313 260 62C253.091 78.84 239.638 91.6017 223 99C222.648 100.973 223 102.957 223 105ZM258 121C260.337 121 263.347 120.652 265 119C266.653 117.348 267 115.336 267 113C267 110.664 266.653 107.652 265 106C263.347 104.348 260.337 104 258 104C255.663 104 253.653 104.348 252 106C250.347 107.652 250 110.664 250 113C250 115.336 250.347 117.348 252 119C253.653 120.652 255.663 121 258 121Z" fill="#DAF4FF"/>
</svg>
